<svg width="318" height="313" viewBox="0 0 318 313" fill="none" xmlns="http://www.w3.org/2000/svg">
<g filter="url(#filter0_dd)">
<path d="M32.6578 172.174C33.312 174.285 35.5518 175.464 37.6607 174.808C39.7696 174.152 40.9489 171.909 40.2948 169.798L32.6578 172.174ZM220.78 66.7932C222.473 68.2116 224.994 67.9873 226.412 66.2922C227.83 64.5971 227.607 62.0731 225.915 60.6546L220.78 66.7932ZM40.2948 169.798C27.1038 127.235 51.1609 84.3132 89.7558 60.4355C128.22 36.6389 179.95 32.5755 220.78 66.7932L225.915 60.6546C181.871 23.7431 126.26 28.4441 85.555 53.6276C44.9806 78.7299 18.0393 125.004 32.6578 172.174L40.2948 169.798Z" fill="#ECE6DC"/>
<path d="M77.1171 255.062C75.6116 253.446 75.7005 250.914 77.3157 249.406C78.9308 247.898 81.4606 247.985 82.9661 249.601L77.1171 255.062ZM262.96 145.672C262.629 143.487 264.13 141.446 266.313 141.113C268.496 140.78 270.534 142.281 270.865 144.466L262.96 145.672ZM82.9661 249.601C111.811 280.562 160.311 280.523 200.477 259.115C240.495 237.786 270.598 196.025 262.96 145.672L270.865 144.466C279.149 199.074 246.358 243.727 204.231 266.18C162.253 288.554 109.357 289.667 77.1171 255.062L82.9661 249.601Z" fill="#ECE6DC"/>
<path d="M16.5358 258.587L17.0121 257.484L16.3295 256.103C15.9501 252.905 15.6514 249.802 15.4332 246.793C15.2576 243.761 15.0892 240.641 14.9279 237.433C14.8615 236.408 14.7951 235.383 14.7287 234.358C14.7049 233.309 14.648 232.251 14.5579 231.184C14.4204 231.037 14.3043 230.878 14.2095 230.707C14.091 230.493 14.0033 230.235 13.9464 229.931C14.0695 228.745 14.1121 227.715 14.0742 226.842C14.0789 225.945 14.0504 225.038 13.9887 224.123C13.8986 223.055 13.8298 221.975 13.7824 220.884C13.7776 219.769 13.8913 218.615 14.1234 217.424L14.2158 216.534L14.9552 216.206C15.0784 216.026 15.2135 215.867 15.3604 215.729C15.5263 215.525 15.7585 215.339 16.0571 215.173L17.3154 214.724C18.3676 213.299 19.095 211.692 19.4978 209.903C19.9195 208.047 20.2109 205.956 20.3719 203.631L20.5354 202.114L21.9146 202.184C22.199 202.194 22.6113 202.132 23.1516 201.998C23.692 201.865 24.2654 201.741 24.8721 201.627C25.8864 201.341 26.903 201.11 27.922 200.934C28.9174 200.715 29.78 200.709 30.5099 200.917L31.1498 201.316C31.4958 201.738 31.7968 202.129 32.0527 202.489C32.3514 202.826 32.65 203.163 32.9486 203.499C33.6169 204.301 34.2639 205.114 34.8896 205.939C35.4916 206.722 36.1102 207.635 36.7453 208.678C37.4326 209.413 38.1104 210.182 38.7788 210.983C39.4661 211.718 40.132 212.465 40.7767 213.224C41.6773 214.343 42.5755 215.407 43.4713 216.418C44.3435 217.385 45.2772 218.262 46.2726 219.049C46.6992 218.811 46.967 218.69 47.076 218.685C47.4693 218.187 47.9954 217.726 48.6542 217.303L49.4504 216.776L50.133 217.401C50.2894 217.482 50.4671 217.551 50.6662 217.607C50.8653 217.664 51.0857 217.709 51.3274 217.742C52.0336 217.405 52.6071 217.281 53.0479 217.371C53.5076 217.394 53.9034 217.453 54.2352 217.548C54.3679 217.585 54.5338 217.633 54.7328 217.689C54.9082 217.704 55.0504 217.708 55.1594 217.703L56.56 217.51L56.5956 219.083C56.6241 220.241 56.3848 221.52 55.8777 222.921C55.4133 224.297 54.738 225.596 53.8517 226.816C54.103 227.067 54.2997 227.321 54.4419 227.577C54.6267 227.809 54.8566 228.073 55.1315 228.367C55.7762 229.125 56.4019 229.951 57.0086 230.842C57.6343 231.667 58.1557 232.607 58.5728 233.66C58.7625 235.007 58.8076 236.296 58.7081 237.525C58.6276 238.688 58.3836 239.858 57.976 241.035C57.5874 242.146 57.033 243.209 56.3126 244.225C55.5685 245.199 54.6751 246.004 53.6324 246.641C52.9642 246.845 52.4333 246.945 52.0399 246.941C51.6892 246.913 51.3598 246.873 51.0517 246.821C50.5683 246.755 50.1962 246.738 49.9355 246.772L48.8904 246.851L48.6131 245.748C48.5515 245.335 48.3642 245.048 48.0514 244.887C47.7812 244.702 47.293 244.527 46.5868 244.362C46.3451 244.328 46.1247 244.284 45.9256 244.227C45.7029 244.127 45.4588 244.04 45.1933 243.964L43.096 243.204L44.8875 241.452C45.9775 240.397 46.5937 239.495 46.7358 238.745C46.8543 237.952 46.4916 236.897 45.6479 235.578C44.463 235.959 43.5767 236.425 42.989 236.976C42.3776 237.484 41.7781 238.014 41.1904 238.565C40.3515 239.367 39.5221 240.137 38.7022 240.873C37.8586 241.566 36.8822 242.222 35.7732 242.84C35.0481 243.244 34.2447 243.608 33.3631 243.931L32.6238 244.259L32.0408 243.662C31.9934 243.576 31.882 243.527 31.7066 243.513C31.5502 243.432 31.4056 243.373 31.2729 243.335C30.9174 243.198 30.4719 242.999 29.9363 242.738C29.4007 242.478 29.0405 241.98 28.8556 241.244C28.2963 240.941 27.8531 240.545 27.526 240.056C27.545 240.493 27.5853 240.918 27.647 241.331C27.7276 241.677 27.8082 242.023 27.8888 242.37L28.095 243.345L27.3343 243.936C27.2964 244.069 27.2822 244.245 27.2917 244.463C27.3438 244.657 27.4149 244.785 27.505 244.847L28.152 245.409L27.8321 246.342C27.8179 246.517 27.7705 246.683 27.6899 246.84C27.6094 246.997 27.5501 247.142 27.5122 247.274C27.6876 247.792 27.8085 248.311 27.8749 248.833C27.9839 249.331 28.0716 249.841 28.138 250.363C28.304 251.165 28.458 251.946 28.6003 252.705C28.7852 253.44 29.0554 254.128 29.4109 254.768L29.6171 255.744C29.5934 256.204 29.4584 256.614 29.2119 256.975C29.0081 257.312 28.7925 257.628 28.565 257.923C28.2333 258.331 28.0295 258.668 27.9536 258.934L28.2239 259.873L27.3352 260.536C26.8518 260.973 26.494 261.284 26.2617 261.469C26.0721 261.631 25.8281 261.795 25.5295 261.961L24.6621 262.361C23.8659 262.133 23.226 261.987 22.7426 261.921C22.2781 261.788 21.7733 261.734 21.2282 261.758L20.5599 261.46C20.1997 261.213 19.9271 260.974 19.7423 260.742C19.5337 260.467 19.3038 260.203 19.0526 259.952C18.6592 259.445 18.3179 259.132 18.0288 259.013L16.5358 258.587ZM27.7033 230.568C27.5801 231.754 27.502 232.971 27.4689 234.219C27.7437 234.01 28.0092 233.835 28.2651 233.692C28.5637 233.526 28.8504 233.338 29.1253 233.129C30.5709 232.212 31.8979 231.333 33.1065 230.492C34.315 229.651 35.5828 228.665 36.9099 227.535C35.6917 226.145 34.419 224.758 33.0919 223.374C31.7836 221.923 30.4328 220.495 29.0392 219.092L29.0748 219.91C28.6483 221.657 28.3119 223.465 28.0656 225.335C27.8192 227.205 27.7079 228.916 27.7317 230.468L27.7033 230.568ZM95.4235 208.939C95.7506 208.924 96.0184 209.054 96.2269 209.329C96.4355 209.604 96.5658 209.839 96.618 210.034C96.3953 211.443 96.2413 212.424 96.156 212.974C96.0708 213.525 96.0234 213.942 96.0139 214.227C95.9808 214.469 95.9144 214.702 95.8149 214.925C95.758 215.124 95.5922 215.58 95.3173 216.292C94.0377 218.514 92.623 220.643 91.0733 222.681C89.5662 224.694 87.7984 226.489 85.7699 228.066C85.6894 228.726 85.206 229.415 84.3197 230.132C83.4998 230.868 82.732 231.547 82.0163 232.17C81.7983 232.179 81.6206 232.111 81.4831 231.964C81.412 231.836 81.2674 231.776 81.0494 231.786C81.2438 232.237 81.1703 232.557 80.8291 232.747C80.5115 232.98 80.0376 233.132 79.4072 233.204C78.8432 233.295 78.1891 233.324 77.445 233.291C76.7672 233.277 76.1653 233.249 75.6392 233.207C75.6155 233.667 75.5705 234.14 75.5042 234.624C75.4805 235.084 75.3336 235.473 75.0634 235.792C74.5468 235.968 74.1487 236.106 73.8691 236.205C73.6321 236.282 73.4662 236.486 73.3714 236.818C73.0444 236.832 72.7482 236.802 72.4828 236.726C72.26 236.627 72.0159 236.539 71.7505 236.463C71.5514 236.407 71.3097 236.374 71.0253 236.364C70.7836 236.331 70.4684 236.367 70.0797 236.472C70.0702 236.254 69.8854 236.021 69.5252 235.775C69.1412 235.486 68.7549 235.393 68.3663 235.498C68.371 235.104 68.0842 234.789 67.506 234.552C66.9467 234.249 66.4277 233.867 65.949 233.407C65.7736 232.89 65.5531 232.342 65.2877 231.764C65.0222 231.185 65.1004 230.722 65.5222 230.375C65.3137 230.1 65.1075 229.88 64.9037 229.714C64.6998 229.548 64.496 229.382 64.2922 229.216C64.4486 228.794 64.496 228.376 64.4343 227.963C64.349 227.508 64.2423 227.064 64.1143 226.632C63.9863 226.2 63.8797 225.757 63.7943 225.301C63.709 224.846 63.7659 224.395 63.9649 223.949C63.6378 222.454 63.415 221.349 63.2964 220.632C63.1542 219.873 62.9598 219.171 62.7133 218.526C62.5095 217.857 62.2819 217.145 62.0307 216.391C61.8221 215.613 61.6254 214.604 61.4404 213.366C61.0423 212.749 60.7982 212.159 60.7081 211.594C60.5943 210.987 60.4924 210.401 60.4023 209.836C60.3311 209.205 60.2174 208.598 60.0609 208.014C59.8808 207.388 59.5039 206.759 58.9304 206.129C58.3569 206.504 58.0489 206.955 58.0062 207.482C57.9399 207.966 58.03 208.531 58.2765 209.176C58.1249 209.707 57.7931 210.116 57.2812 210.401C56.7883 210.62 56.3855 210.9 56.0727 211.242C54.2479 211.476 52.5369 211.311 50.9396 210.748C49.3423 210.184 47.8303 209.322 46.4036 208.161C46.2424 206.965 46.3679 205.833 46.7802 204.765C47.1688 203.654 47.7351 202.612 48.4792 201.638C49.1996 200.622 50.0432 199.677 51.01 198.803C51.9532 197.887 52.8655 197.015 53.747 196.189C55.2447 194.963 56.7187 193.695 58.1689 192.384C59.6192 191.073 61.3396 189.947 63.3302 189.005C63.5151 188.735 63.7781 188.504 64.1194 188.314C64.4796 188.058 64.8516 187.822 65.2355 187.609C65.6194 187.395 65.982 187.193 66.3232 187.003C66.6834 186.746 66.9559 186.482 67.1408 186.212C67.4963 186.349 67.8896 186.354 68.321 186.225C68.7712 186.03 69.3257 185.973 69.9846 186.053C70.2831 185.383 70.6623 185.06 71.122 185.084C71.6244 185.083 72.096 185.128 72.5368 185.218C72.9776 185.308 73.3852 185.388 73.7597 185.459C74.1768 185.506 74.5346 185.446 74.8332 185.28C75.3451 185.498 75.9091 185.659 76.5253 185.763C77.1841 185.843 77.8121 185.968 78.4093 186.138C79.0255 186.242 79.58 186.436 80.073 186.721C80.6086 186.981 81.0304 187.389 81.3385 187.944C81.4144 188.181 81.5494 188.274 81.7438 188.221C81.9381 188.169 82.1135 188.183 82.2699 188.264C83.0472 189.563 83.4739 190.835 83.5498 192.078C83.6446 193.255 83.576 194.439 83.3438 195.63C83.1543 196.798 82.8557 197.97 82.4482 199.147C82.0833 200.301 81.8061 201.461 81.6166 202.629C82.3512 202.946 83.1143 203.164 83.9059 203.282C84.6974 203.4 85.4889 203.518 86.2805 203.636C87.1146 203.73 87.918 203.869 88.6906 204.054C89.4632 204.238 90.1978 204.556 90.8946 205.006C91.0273 205.044 91.1813 205.07 91.3567 205.084C91.5084 205.055 91.6719 205.048 91.8473 205.062C92.2122 205.418 92.6317 205.771 93.1057 206.122C93.556 206.43 93.9636 206.762 94.3286 207.117C94.7125 207.406 95.0206 207.71 95.2529 208.028C95.4614 208.303 95.5183 208.606 95.4235 208.939ZM72.2885 193.824C70.0656 194.951 67.9968 196.355 66.0821 198.036C64.21 199.694 62.7859 201.354 61.8096 203.015C62.8665 203.209 63.8879 203.339 64.8738 203.404C65.9023 203.446 66.855 203.754 67.7318 204.327C69.0162 202.718 70.0138 201.044 70.7247 199.307C71.4118 197.526 71.9331 195.699 72.2885 193.824ZM84.461 213.788C84.3519 213.29 84.3969 212.818 84.596 212.371C84.795 211.925 85.0059 211.5 85.2287 211.097C85.4277 210.651 85.5841 210.228 85.6978 209.829C85.7878 209.388 85.6693 208.923 85.3423 208.434C83.5744 208.469 82.079 208.743 80.8562 209.257C79.6524 209.704 78.586 210.298 77.6571 211.039C76.7471 211.714 75.9058 212.462 75.1333 213.283C74.4034 214.081 73.6049 214.806 72.7375 215.456C72.9556 216.956 73.2117 218.574 73.5056 220.31C73.7996 222.047 74.0912 223.729 74.3804 225.357C75.5652 224.473 76.5961 223.563 77.4728 222.628C78.3259 221.649 79.1245 220.674 79.8686 219.7C80.6553 218.703 81.3994 217.729 82.1008 216.78C82.8212 215.764 83.6079 214.766 84.461 213.788ZM130.077 178.147C130.319 178.683 130.634 179.15 131.023 179.549C131.411 179.947 131.821 180.333 132.253 180.708C132.703 181.016 133.144 181.357 133.575 181.732C134.007 182.106 134.395 182.505 134.741 182.927C135.158 183.477 135.526 184.139 135.843 184.912C136.137 185.643 136.367 186.409 136.533 187.211C136.675 187.97 136.73 188.722 136.697 189.467C136.64 190.169 136.448 190.779 136.121 191.297C135.95 192.398 135.557 193.4 134.941 194.302C134.325 195.204 133.82 196.156 133.427 197.157C133.123 197.718 132.709 198.228 132.183 198.689C131.699 199.126 131.194 199.575 130.668 200.036C130.341 200.553 129.941 201.14 129.467 201.795C128.969 202.407 128.45 203.032 127.91 203.668C127.346 204.262 126.758 204.813 126.147 205.321C125.512 205.787 124.927 206.141 124.391 206.383C123.372 207.566 122.28 208.566 121.114 209.383C120.014 210.219 118.559 210.918 116.749 211.479C115.332 212.548 113.867 213.28 112.355 213.675C110.886 214.047 109.438 214.155 108.011 213.999C106.604 213.777 105.231 213.368 103.895 212.771C102.577 212.108 101.364 211.331 100.255 210.439C98.5624 208.196 97.4271 205.95 96.8488 203.701C96.2467 201.409 95.9527 199.17 95.9668 196.982C95.9999 194.728 96.2439 192.552 96.6988 190.454C97.1299 188.313 97.5422 186.239 97.9355 184.231C98.2388 184.174 98.4307 184.067 98.5113 183.911C98.6108 183.688 98.6772 183.455 98.7103 183.213C98.7198 182.928 98.7411 182.665 98.7743 182.423C98.8501 182.157 98.9828 181.943 99.1724 181.782C99.1155 180.975 99.2813 180.268 99.6699 179.66C100.078 178.986 100.286 178.255 100.295 177.467C100.632 177.168 100.881 176.862 101.042 176.548C101.203 176.235 101.331 175.912 101.426 175.58C101.563 175.224 101.712 174.889 101.874 174.576C102.011 174.22 102.227 173.904 102.521 173.629L102.129 172.924C102.708 172.155 103.049 171.462 103.153 170.845C103.276 170.161 103.416 169.357 103.572 168.431C103.933 168.175 104.219 167.987 104.433 167.868C104.689 167.726 105.027 167.481 105.449 167.134C105.459 166.346 105.508 165.732 105.598 165.29C105.731 164.825 105.98 164.267 106.345 163.617C106.999 163.588 107.648 163.45 108.293 163.202C108.98 162.931 109.689 162.9 110.419 163.108C110.698 163.511 111.016 163.782 111.371 163.919C111.703 164.014 112.056 164.096 112.431 164.167C112.781 164.195 113.123 164.257 113.454 164.351C113.829 164.422 114.165 164.626 114.464 164.963C114.658 164.91 114.753 164.83 114.748 164.72C114.786 164.588 114.902 164.495 115.097 164.443C115.556 164.969 115.931 165.291 116.22 165.41C116.485 165.485 116.858 165.753 117.336 166.213C117.36 166.759 117.438 167.302 117.571 167.843C117.723 168.318 117.644 168.78 117.336 169.231C117.46 169.554 117.64 169.677 117.877 169.601C118.09 169.482 118.277 169.518 118.438 169.707C118.694 170.068 118.784 170.381 118.709 170.647C120.657 171.741 122.557 173.002 124.411 174.429C126.24 175.813 128.129 177.053 130.077 178.147ZM125.457 188.686C125.366 188.121 125.366 187.618 125.456 187.177C125.589 186.712 125.511 186.169 125.222 185.547C124.819 185.324 124.549 185.14 124.411 184.993C124.25 184.803 124.051 184.495 123.814 184.068C122.141 183.267 120.548 182.31 119.036 181.196C117.501 180.039 115.939 179.037 114.351 178.189C114.36 178.407 114.306 178.661 114.187 178.95C114.069 179.24 113.811 179.328 113.413 179.214C113.517 179.604 113.51 179.943 113.391 180.232C113.249 180.479 113.05 180.674 112.794 180.817C112.514 180.917 112.202 181.007 111.856 181.088C111.529 181.102 111.211 181.084 110.903 181.032C110.211 182.703 109.507 184.352 108.792 185.981C108.076 187.609 107.571 189.315 107.278 191.1C107.154 191.281 107.072 191.383 107.029 191.406C106.963 191.387 106.846 191.48 106.681 191.684C106.79 192.685 106.778 193.67 106.645 194.638C106.531 195.54 106.43 196.463 106.34 197.408C106.25 198.352 106.247 199.304 106.333 200.262C106.418 201.221 106.724 202.224 107.25 203.272C108.307 203.466 109.361 203.354 110.414 202.935C111.466 202.517 112.48 201.98 113.456 201.324C114.475 200.645 115.428 199.946 116.314 199.229C117.22 198.445 118.099 197.816 118.952 197.34C120.506 195.915 121.734 194.505 122.634 193.109C123.511 191.67 124.452 190.196 125.457 188.686ZM160.678 138.547C161.285 139.438 161.884 140.166 162.477 140.73C163.069 141.295 163.671 141.826 164.283 142.324C164.828 142.802 165.351 143.293 165.854 143.796C166.375 144.232 166.904 144.832 167.439 145.595C167.714 146.895 168.027 148.063 168.378 149.097C168.771 150.107 169.167 151.172 169.565 152.292C169.712 154.166 169.786 155.858 169.786 157.367C169.786 158.876 169.831 160.165 169.921 161.232C169.827 161.565 169.777 161.928 169.772 162.321C169.786 162.649 169.791 163.01 169.786 163.403C169.772 163.579 169.772 163.831 169.786 164.158C169.801 164.485 169.789 164.716 169.751 164.848L168.222 165.113L168.855 166.857L168.102 167.612L167.888 168.737C167.86 170.597 167.671 172.268 167.32 173.748C166.946 175.187 166.396 176.611 165.671 178.021C164.965 179.364 164.064 180.76 162.969 182.209C161.917 183.633 160.709 185.229 159.344 186.995C158.571 187.314 157.908 187.627 157.353 187.936C156.818 188.179 156.303 188.409 155.811 188.628C155 189.08 153.962 189.574 152.697 190.111C152.379 189.841 152.057 189.713 151.73 189.728C151.403 189.742 151.133 189.809 150.919 189.928C150.005 189.99 149.177 189.808 148.438 189.382C147.718 188.889 146.973 188.353 146.206 187.775C145.732 187.424 145.281 187.116 144.855 186.851C144.404 186.542 143.933 186.246 143.44 185.962L144.35 185.036L142.089 184.283C141.933 184.203 141.767 184.155 141.591 184.141C141.392 184.084 141.215 184.016 141.058 183.935L140.425 182.946C138.662 180.072 137.105 177.418 135.754 174.985C134.422 172.485 133.543 170.096 133.116 167.819L132.725 167.114C132.331 166.104 132.033 165.264 131.829 164.595C131.601 163.884 131.376 163.226 131.153 162.624C130.76 161.613 130.466 160.631 130.272 159.678C130.798 159.217 131.115 158.733 131.224 158.225C131.31 157.674 131.376 157.19 131.423 156.772C131.997 156.397 132.449 156.257 132.781 156.351C133.113 156.446 133.516 156.669 133.99 157.019C134.416 157.285 134.909 157.569 135.469 157.872C136.071 158.152 136.763 158.242 137.545 158.141C137.82 158.435 138.128 158.739 138.469 159.052C138.829 159.298 139.213 159.587 139.621 159.919C140.365 160.455 141.09 161.057 141.796 161.725C142.521 162.327 143.107 162.979 143.552 163.681C143.576 164.73 143.756 165.859 144.093 167.069C144.472 168.255 144.927 169.427 145.458 170.585C146.008 171.676 146.61 172.71 147.264 173.687C147.937 174.597 148.591 175.323 149.226 175.863L150.073 176.482L151.089 175.748C152.179 174.693 153.129 173.689 153.94 172.734C154.769 171.713 155.478 170.676 156.065 169.622C156.653 168.568 157.151 167.452 157.558 166.275C157.942 165.055 158.309 163.705 158.66 162.224C159.011 160.743 159.162 159.205 159.115 157.611C159.086 155.95 158.906 154.318 158.574 152.714C158.285 151.086 157.88 149.552 157.358 148.109C156.856 146.601 156.315 145.225 155.737 143.982C156.32 143.322 156.398 142.608 155.971 141.839L155.452 141.206C155.14 141.045 154.974 140.746 154.955 140.31C154.76 139.356 155.014 138.404 155.715 137.455C156.635 137.501 157.493 137.638 158.289 137.865C159.128 138.069 159.924 138.296 160.678 138.547ZM200.579 123.696C199.513 124.29 198.408 125.017 197.266 125.877C196.1 126.694 194.967 127.521 193.868 128.357C193.086 128.96 192.313 129.53 191.55 130.067C190.83 130.58 190.162 131.036 189.546 131.436C189.768 132.541 189.932 133.54 190.036 134.432C190.141 135.324 190.212 136.207 190.25 137.08C190.311 137.996 190.406 138.921 190.534 139.856C190.681 140.724 190.864 141.656 191.082 142.653C191.034 143.574 191.027 144.416 191.061 145.18C191.113 145.877 191.255 146.637 191.487 147.457C191.331 148.383 191.326 149.28 191.473 150.148C191.596 150.974 191.736 151.678 191.893 152.262L192.063 153.173C191.95 153.572 191.919 153.868 191.971 154.063C192 154.215 191.964 154.402 191.864 154.625C192.083 155.119 192.194 155.671 192.199 156.284C192.232 156.545 192.286 156.794 192.362 157.031C192.414 157.225 192.464 157.365 192.512 157.451C192.749 157.878 192.796 158.214 192.654 158.461C192.815 158.651 192.945 158.886 193.045 159.166C193.121 159.403 193.197 159.64 193.272 159.877C193.429 160.461 193.611 160.89 193.82 161.165C194.043 161.265 194.232 161.355 194.389 161.435C194.588 161.492 194.768 161.615 194.929 161.805C195.28 161.833 195.531 161.833 195.683 161.804C195.924 161.837 196.263 161.844 196.699 161.825L197.631 162.145C198.531 163.264 198.884 164.353 198.69 165.411C198.501 166.579 197.638 167.59 196.102 168.446L195.335 168.873C195.003 168.779 194.78 168.679 194.666 168.575C194.254 168.637 193.918 168.685 193.657 168.718C193.396 168.751 193.109 168.688 192.797 168.527C192.1 168.579 191.533 168.615 191.097 168.635L190.344 168.635C190.083 168.166 189.941 167.91 189.917 167.867C189.405 167.649 188.934 167.353 188.502 166.978C188.114 166.58 187.746 166.17 187.4 165.748C187.102 165.411 186.794 165.108 186.476 164.837C186.201 164.543 185.907 164.316 185.594 164.155C184.134 161.726 183.208 159.504 182.814 157.487C182.421 155.471 182.084 153.506 181.804 151.594C181.672 150.55 181.539 149.506 181.406 148.462C181.25 147.376 181.039 146.292 180.773 145.21L180.994 144.249C180.913 143.399 180.839 142.714 180.773 142.192C180.726 141.603 180.678 141.015 180.631 140.426C180.593 140.056 180.545 139.719 180.488 139.416C180.451 139.046 180.415 138.73 180.382 138.469C180.126 138.612 179.903 138.764 179.714 138.925C179.5 139.044 179.299 139.184 179.109 139.346C178.877 139.531 178.666 139.704 178.477 139.866C178.263 139.985 178.05 140.103 177.837 140.222C177.538 140.389 177.313 140.486 177.161 140.515C176.811 140.989 176.358 141.381 175.803 141.69L175.164 142.047C175.036 142.118 174.908 142.189 174.78 142.261C174.671 142.265 174.574 142.292 174.488 142.339C174.062 142.577 173.756 142.831 173.571 143.102C173.059 143.387 172.569 143.66 172.1 143.921L171.46 144.278C171.374 144.325 171.28 144.406 171.175 144.52C171.047 144.591 170.941 144.651 170.855 144.698C170.557 144.865 170.225 145.022 169.86 145.169C169.471 145.274 169.026 145.326 168.524 145.327C167.632 144.929 167.09 144.756 166.895 144.808L165.893 144.361C165.708 144.128 165.514 143.929 165.31 143.763C165.082 143.555 164.843 143.325 164.592 143.073C164.184 142.742 163.765 142.388 163.333 142.014C162.921 141.573 162.525 141.011 162.146 140.328C161.999 139.962 161.942 139.659 161.975 139.417C162.009 139.175 162.032 138.966 162.046 138.79L161.705 137.723L162.572 137.323L164.364 136.325C165.729 135.565 167.092 134.75 168.452 133.88C169.788 132.968 171.168 132.032 172.589 131.072C173.395 130.512 174.201 129.951 175.007 129.39C175.855 128.806 176.725 128.21 177.616 127.602C177.573 127.122 177.542 126.664 177.523 126.228L177.985 125.551C178.729 125.081 179.322 124.89 179.763 124.98C180.222 125.004 180.618 125.063 180.95 125.157C181.841 124.549 182.732 123.941 183.623 123.333C184.533 122.658 185.431 121.962 186.317 121.245C187.649 120.223 188.993 119.223 190.348 118.245C191.746 117.242 193.128 116.361 194.493 115.6C195.09 115.268 195.678 114.968 196.256 114.702C196.834 114.436 197.382 114.215 197.898 114.039L198.787 114.13C199.057 114.315 199.358 114.455 199.69 114.55C200.064 114.621 200.439 114.691 200.813 114.762C201.586 114.947 202.406 115.217 203.273 115.572C204.14 115.927 204.854 116.759 205.413 118.069C205.356 118.771 205.266 119.212 205.143 119.393L204.994 120.482L204.318 120.774C204.063 120.917 203.852 121.09 203.686 121.295C203.496 121.456 203.318 121.639 203.153 121.843C203.029 122.024 202.906 122.204 202.783 122.384C202.636 122.522 202.468 122.672 202.278 122.833C201.894 123.047 201.574 123.225 201.318 123.368C201.081 123.444 200.835 123.553 200.579 123.696ZM254.04 86.5351C254.647 87.4268 255.247 88.1547 255.839 88.7189C256.432 89.2832 257.034 89.8142 257.645 90.3119C258.19 90.7908 258.714 91.2815 259.216 91.7841C259.738 92.2203 260.266 92.8202 260.802 93.5838C261.077 94.8838 261.39 96.051 261.741 97.0852C262.134 98.0957 262.53 99.1607 262.928 100.28C263.075 102.155 263.149 103.846 263.149 105.356C263.149 106.865 263.194 108.153 263.284 109.221C263.189 109.553 263.139 109.916 263.135 110.31C263.149 110.637 263.154 110.998 263.149 111.392C263.135 111.567 263.135 111.819 263.149 112.146C263.163 112.474 263.151 112.704 263.114 112.837L261.585 113.102L262.218 114.845L261.464 115.6L261.251 116.725C261.223 118.585 261.033 120.256 260.683 121.737C260.308 123.175 259.759 124.599 259.033 126.009C258.327 127.353 257.427 128.749 256.332 130.197C255.28 131.622 254.071 133.217 252.706 134.984C251.934 135.302 251.27 135.616 250.716 135.925C250.18 136.167 249.666 136.398 249.173 136.617C248.363 137.068 247.325 137.562 246.059 138.1C245.742 137.83 245.419 137.702 245.092 137.716C244.765 137.731 244.495 137.797 244.282 137.916C243.367 137.979 242.54 137.797 241.801 137.37C241.08 136.877 240.336 136.342 239.568 135.763C239.094 135.412 238.644 135.104 238.217 134.839C237.767 134.531 237.295 134.235 236.803 133.95L237.712 133.024L235.452 132.272C235.295 132.191 235.129 132.144 234.954 132.13C234.755 132.073 234.577 132.004 234.421 131.924L233.788 130.935C232.025 128.06 230.468 125.406 229.117 122.973C227.785 120.473 226.905 118.085 226.479 115.807L226.088 115.103C225.694 114.092 225.395 113.253 225.192 112.584C224.964 111.872 224.739 111.215 224.516 110.612C224.123 109.602 223.829 108.62 223.634 107.666C224.16 107.205 224.478 106.721 224.587 106.213C224.672 105.663 224.739 105.179 224.786 104.761C225.359 104.386 225.812 104.245 226.144 104.34C226.476 104.434 226.878 104.657 227.352 105.008C227.779 105.273 228.272 105.558 228.831 105.861C229.433 106.14 230.125 106.23 230.907 106.13C231.182 106.424 231.49 106.727 231.832 107.04C232.192 107.287 232.576 107.576 232.983 107.908C233.727 108.443 234.453 109.045 235.159 109.714C235.884 110.316 236.469 110.968 236.915 111.67C236.939 112.719 237.119 113.848 237.456 115.058C237.835 116.244 238.29 117.416 238.821 118.573C239.371 119.664 239.973 120.698 240.627 121.675C241.3 122.586 241.954 123.311 242.589 123.852L243.435 124.47L244.452 123.736C245.542 122.682 246.492 121.677 247.303 120.723C248.132 119.702 248.84 118.664 249.428 117.61C250.016 116.556 250.513 115.441 250.921 114.264C251.305 113.044 251.672 111.693 252.023 110.212C252.373 108.731 252.525 107.194 252.477 105.599C252.449 103.938 252.269 102.306 251.937 100.702C251.648 99.0748 251.242 97.54 250.721 96.0978C250.218 94.5891 249.678 93.2133 249.1 91.9705C249.683 91.3104 249.761 90.5961 249.334 89.8277L248.815 89.1946C248.502 89.0335 248.336 88.7346 248.317 88.2981C248.123 87.3444 248.377 86.3927 249.078 85.443C249.997 85.4897 250.855 85.6266 251.652 85.8537C252.491 86.0571 253.287 86.2842 254.04 86.5351ZM259.661 93.381C259.462 92.3182 259.504 91.2883 259.789 90.2915C260.116 89.271 260.545 88.3334 261.075 87.4787C261.625 86.5576 262.244 85.71 262.931 84.936C263.618 84.1619 264.286 83.4542 264.936 82.813C266.239 81.1368 267.673 79.4438 269.237 77.7341C270.82 75.9579 272.471 74.2553 274.192 72.6261C275.955 70.9732 277.867 69.4887 279.929 68.1724C281.967 66.8135 284.348 65.8221 287.074 65.1982C287.439 65.5538 287.856 65.8524 288.325 66.0941C288.794 66.3357 289.263 66.5773 289.733 66.819C290.245 67.0368 290.714 67.2785 291.14 67.5439C291.543 67.7666 291.873 68.0581 292.129 68.4186C292.768 68.5652 293.347 68.802 293.863 69.129C294.356 69.4133 294.719 69.9659 294.951 70.7867C294.714 71.3658 294.465 71.9236 294.205 72.4601C293.963 72.9301 293.667 73.4025 293.316 73.8774C291.525 74.3724 289.854 75.1354 288.304 76.1665C286.754 77.1976 285.363 78.1122 284.131 78.9105C283.534 78.7402 282.958 78.8095 282.403 79.1184C281.892 79.4035 281.384 79.7978 280.882 80.3013C280.422 80.781 279.941 81.2725 279.439 81.776C278.979 82.2557 278.47 82.5954 277.91 82.7952C277.673 83.3743 277.271 83.9062 276.702 84.3907C276.152 84.8087 275.538 85.2624 274.861 85.7518C274.936 85.989 275.062 86.1147 275.237 86.1288C275.389 86.1002 275.482 86.2163 275.515 86.4773C275.937 86.6336 276.375 86.6688 276.83 86.583C277.328 86.4735 277.825 86.3639 278.323 86.2543C278.863 86.121 279.363 86.066 279.823 86.0894C280.259 86.07 280.66 86.2382 281.025 86.5938C281.664 86.2373 282.302 86.0778 282.937 86.1153C283.572 86.1527 284.157 86.3017 284.693 86.5623C285.229 86.8228 285.703 87.1736 286.115 87.6146C286.546 87.9891 286.869 88.3685 287.082 88.7527C287.4 89.023 287.632 89.0892 287.779 88.9515C287.926 88.8137 288.165 88.7922 288.497 88.8868C288.933 89.3705 289.573 89.7686 290.416 90.0811C291.236 90.3509 291.985 90.7442 292.663 91.2609C293.341 92.2806 293.938 93.2055 294.455 94.0355C294.948 94.8229 295.261 95.7385 295.393 96.7824C295.63 98.7184 295.517 100.626 295.052 102.506C294.631 104.362 293.967 106.185 293.062 107.974C292.176 109.698 291.112 111.352 289.87 112.939C288.628 114.525 287.37 115.98 286.095 117.305C285.901 117.358 285.73 117.453 285.583 117.59C285.437 117.728 285.335 117.645 285.278 117.341C285.102 117.83 284.825 118.236 284.446 118.559C284.109 118.859 283.695 119.118 283.202 119.336C282.733 119.598 282.23 119.85 281.695 120.092C281.202 120.311 280.766 120.582 280.387 120.905C279.922 120.772 279.479 120.628 279.057 120.472C278.702 120.334 278.341 120.088 277.976 119.732C277.763 119.851 277.597 119.804 277.479 119.59C277.403 119.353 277.28 119.282 277.109 119.377C277.128 118.807 277.104 118.513 277.038 118.494C276.99 118.409 276.891 118.381 276.739 118.409C276.63 118.414 276.521 118.419 276.412 118.424C276.28 118.386 276.199 118.291 276.171 118.139C276.152 117.703 276.002 117.283 275.723 116.88C275.419 116.434 275.116 115.988 274.812 115.542C274.509 115.096 274.282 114.636 274.13 114.162C274.021 113.663 274.151 113.144 274.521 112.602C276.066 111.965 277.407 111.162 278.545 110.193C279.701 109.158 280.713 108.063 281.58 106.909C282.448 105.755 283.227 104.594 283.919 103.426C284.654 102.234 285.402 101.119 286.165 100.079C286.08 99.6233 286.073 99.208 286.144 98.8331C286.258 98.4343 286.383 98.057 286.521 97.7009C286.658 97.3449 286.762 96.9794 286.834 96.6045C286.905 96.2295 286.876 95.8262 286.748 95.3944C286.625 95.0718 286.445 94.9486 286.208 95.0247C285.99 95.0344 285.81 94.9111 285.667 94.655L284.857 94.855C283.786 94.8369 282.655 94.9636 281.466 95.2351C280.252 95.4639 279.177 95.5881 278.238 95.6079C277.911 96.1254 277.499 96.439 277.001 96.5485C276.546 96.6343 275.963 96.7914 275.252 97.0198C273.755 97.7424 272.264 98.3771 270.78 98.9241C269.34 99.4473 267.847 99.776 266.302 99.9101C266.098 99.7442 265.884 99.6115 265.662 99.512C265.439 99.4126 265.181 99.5006 264.887 99.7761C264.441 99.5771 264.008 99.3995 263.586 99.2433C263.14 99.0443 262.704 98.8121 262.278 98.5467C262.078 97.9869 261.905 97.5244 261.758 97.1591C261.588 96.7511 261.258 96.4595 260.77 96.2844C260.633 95.6343 260.512 95.1148 260.408 94.7257C260.303 94.3367 260.054 93.8884 259.661 93.381Z" fill="#ECE6DC"/>
</g>
<defs>
<filter id="filter0_dd" x="-8" y="-8" width="330" height="329" filterUnits="userSpaceOnUse" color-interpolation-filters="sRGB">
<feFlood flood-opacity="0" result="BackgroundImageFix"/>
<feColorMatrix in="SourceAlpha" type="matrix" values="0 0 0 0 0 0 0 0 0 0 0 0 0 0 0 0 0 0 127 0"/>
<feOffset dx="-4" dy="-4"/>
<feGaussianBlur stdDeviation="2"/>
<feColorMatrix type="matrix" values="0 0 0 0 1 0 0 0 0 0.972549 0 0 0 0 0.929412 0 0 0 0.65 0"/>
<feBlend mode="normal" in2="BackgroundImageFix" result="effect1_dropShadow"/>
<feColorMatrix in="SourceAlpha" type="matrix" values="0 0 0 0 0 0 0 0 0 0 0 0 0 0 0 0 0 0 127 0"/>
<feOffset dy="4"/>
<feGaussianBlur stdDeviation="2"/>
<feColorMatrix type="matrix" values="0 0 0 0 0 0 0 0 0 0 0 0 0 0 0 0 0 0 0.5 0"/>
<feBlend mode="normal" in2="effect1_dropShadow" result="effect2_dropShadow"/>
<feBlend mode="normal" in="SourceGraphic" in2="effect2_dropShadow" result="shape"/>
</filter>
</defs>
</svg>
