<svg width="321" height="313" viewBox="0 0 321 313" fill="none" xmlns="http://www.w3.org/2000/svg">
<g filter="url(#filter0_dd)">
<path d="M35.6578 172.174C36.312 174.285 38.5518 175.464 40.6607 174.808C42.7696 174.152 43.9489 171.909 43.2948 169.798L35.6578 172.174ZM223.78 66.7932C225.473 68.2116 227.994 67.9873 229.412 66.2922C230.83 64.5971 230.607 62.0731 228.915 60.6546L223.78 66.7932ZM43.2948 169.798C30.1038 127.235 54.1609 84.3132 92.7558 60.4355C131.22 36.6389 182.95 32.5755 223.78 66.7932L228.915 60.6546C184.871 23.7431 129.26 28.4441 88.555 53.6276C47.9806 78.7299 21.0393 125.004 35.6578 172.174L43.2948 169.798Z" fill="#ECE6DC"/>
<path d="M80.1171 255.062C78.6116 253.446 78.7005 250.914 80.3157 249.406C81.9308 247.898 84.4606 247.985 85.9661 249.601L80.1171 255.062ZM265.96 145.672C265.629 143.487 267.13 141.446 269.313 141.113C271.496 140.78 273.534 142.281 273.865 144.466L265.96 145.672ZM85.9661 249.601C114.811 280.562 163.311 280.523 203.477 259.115C243.495 237.786 273.598 196.025 265.96 145.672L273.865 144.466C282.149 199.074 249.358 243.727 207.231 266.18C165.253 288.554 112.357 289.667 80.1171 255.062L85.9661 249.601Z" fill="#ECE6DC"/>
<path d="M24.9758 241.228C23.2174 240.978 21.5419 240.374 19.9493 239.417C18.3994 238.436 16.9513 237.286 15.6052 235.968C14.3017 234.626 13.1025 233.17 12.0076 231.6C10.9316 229.964 9.98829 228.365 9.17773 226.805C8.92171 225.438 8.81026 224.131 8.84337 222.883C8.85278 221.592 8.96172 220.33 9.1702 219.096C9.35497 217.819 9.59663 216.594 9.89516 215.422C10.2127 214.183 10.5088 212.956 10.7836 211.741C11.0396 211.598 11.3097 211.532 11.5941 211.541C11.504 210.976 11.5348 210.428 11.6865 209.897C11.8381 209.365 12.0348 208.864 12.2765 208.394C12.4945 207.881 12.7243 207.39 12.966 206.92C13.184 206.407 13.3143 205.888 13.3569 205.361C14.2811 204.511 15.0181 203.625 15.5678 202.704C16.1602 201.759 16.6863 200.795 17.146 199.813C17.6057 198.83 18.1104 197.878 18.6602 196.957C19.2099 196.036 19.9469 195.15 20.8711 194.3C21.018 193.659 21.2857 193.035 21.6743 192.427C22.1056 191.796 22.5274 191.197 22.9397 190.632C23.3947 190.043 23.7952 189.457 24.1411 188.873C24.5297 188.265 24.7525 187.61 24.8093 186.908C25.2548 187.107 25.6885 187.033 26.1103 186.686C26.5084 186.297 26.8639 185.931 27.1767 185.589C27.4089 185.404 27.6459 185.328 27.8876 185.361C28.1294 185.394 28.3616 185.46 28.5844 185.559C28.8261 185.592 29.0015 185.606 29.1105 185.602C29.2621 185.573 29.319 185.374 29.2811 185.003C29.646 184.856 29.8143 184.958 29.7859 185.309C29.8001 185.637 29.8096 185.855 29.8143 185.964C30.1935 185.641 30.5821 185.536 30.9803 185.65C31.3974 185.697 31.9282 185.597 32.5728 185.35C32.9046 185.444 33.0633 185.579 33.0491 185.755C33.0349 185.93 33.0894 186.18 33.2127 186.502C35.009 186.116 36.4048 186.317 37.4002 187.104C38.3719 187.848 38.9952 188.87 39.2702 190.17C39.5214 191.428 39.4386 192.787 39.0216 194.249C38.6235 195.645 37.9529 196.801 37.0098 197.718C35.8771 198.796 34.8296 199.826 33.8675 200.809C32.9481 201.769 32.0737 202.759 31.2443 203.78C30.4576 204.777 29.7609 205.836 29.1543 206.957C28.5666 208.011 28.1449 209.112 27.889 210.26C26.8842 211.267 26.0572 212.343 25.408 213.487C24.8013 214.608 24.2729 215.768 23.8227 216.969C23.4152 218.147 23.0527 219.355 22.7352 220.593C22.394 221.79 22.0528 222.986 21.7116 224.182C22.1145 224.908 22.2947 225.534 22.252 226.061C22.2094 226.587 22.1454 227.126 22.0602 227.677C22.5958 228.44 23.1575 229.05 23.7452 229.505C24.3519 229.893 24.9705 230.303 25.6008 230.735C29.5821 229.858 33.542 228.491 37.4806 226.632C41.4381 224.707 45.3055 222.72 49.0829 220.671C49.7512 220.97 50.4503 221.223 51.1803 221.431C51.9291 221.573 52.6259 221.772 53.2705 222.027C53.9578 222.259 54.5858 222.636 55.1546 223.158C55.7423 223.613 56.2092 224.303 56.5552 225.228C56.233 226.358 55.8349 227.502 55.361 228.66C54.8634 229.776 54.3658 230.891 53.8682 232.007C53.508 232.263 53.0388 232.525 52.4606 232.791C51.925 233.033 51.3587 233.321 50.7615 233.654C50.207 233.963 49.6548 234.326 49.105 234.744C48.5742 235.096 48.1121 235.521 47.7187 236.02C44.984 237.431 42.055 238.644 38.9316 239.657C35.7845 240.628 32.7915 241.373 29.9525 241.893C29.1751 241.599 28.4002 241.36 27.6276 241.176C26.8313 240.948 25.9474 240.966 24.9758 241.228ZM88.5993 187.925C88.841 188.461 89.1562 188.929 89.5449 189.327C89.9336 189.725 90.3436 190.112 90.7749 190.486C91.2252 190.794 91.666 191.136 92.0973 191.51C92.5287 191.885 92.9173 192.283 93.2634 192.705C93.6805 193.255 94.0478 193.917 94.3654 194.69C94.6593 195.421 94.8892 196.187 95.0552 196.989C95.1974 197.748 95.252 198.5 95.2188 199.245C95.162 199.948 94.9701 200.558 94.6431 201.075C94.4725 202.176 94.0791 203.178 93.463 204.08C92.8469 204.982 92.3422 205.934 91.9489 206.936C91.6456 207.496 91.2309 208.006 90.7048 208.467C90.2214 208.904 89.7166 209.353 89.1906 209.814C88.8635 210.331 88.4631 210.918 87.9891 211.573C87.4915 212.186 86.9726 212.81 86.4323 213.446C85.8683 214.04 85.2806 214.591 84.6692 215.099C84.0341 215.565 83.4488 215.919 82.9132 216.161C81.8943 217.344 80.8018 218.344 79.6359 219.161C78.5364 219.997 77.0813 220.696 75.2708 221.257C73.8537 222.326 72.3892 223.058 70.8773 223.453C69.408 223.825 67.96 223.933 66.5334 223.777C65.1257 223.556 63.7535 223.146 62.4169 222.549C61.0993 221.886 59.8859 221.109 58.7767 220.218C57.0846 217.974 55.9493 215.728 55.3709 213.479C54.7689 211.188 54.4749 208.948 54.489 206.76C54.522 204.506 54.766 202.33 55.2209 200.232C55.6521 198.092 56.0643 196.017 56.4576 194.01C56.761 193.953 56.9529 193.846 57.0335 193.689C57.133 193.466 57.1993 193.233 57.2325 192.991C57.242 192.706 57.2633 192.443 57.2964 192.201C57.3723 191.935 57.505 191.722 57.6945 191.56C57.6376 190.753 57.8035 190.046 58.1921 189.438C58.5997 188.764 58.8082 188.033 58.8176 187.245C59.1541 186.946 59.4029 186.64 59.564 186.326C59.7252 186.013 59.8531 185.69 59.9479 185.358C60.0853 185.002 60.2346 184.667 60.3958 184.354C60.5332 183.998 60.7488 183.682 61.0427 183.407L60.6516 182.702C61.2298 181.933 61.571 181.24 61.6753 180.623C61.7984 179.939 61.9382 179.135 62.0946 178.209C62.4548 177.953 62.7415 177.765 62.9548 177.646C63.2107 177.504 63.5496 177.259 63.9714 176.912C63.9809 176.125 64.0306 175.51 64.1206 175.069C64.2533 174.603 64.5021 174.046 64.867 173.395C65.5211 173.366 66.1704 173.228 66.815 172.981C67.5022 172.71 68.2108 172.678 68.9407 172.886C69.2204 173.29 69.538 173.56 69.8934 173.697C70.2252 173.792 70.5783 173.875 70.9528 173.945C71.3035 173.974 71.6448 174.035 71.9765 174.13C72.351 174.201 72.6875 174.404 72.9861 174.741C73.1804 174.689 73.2752 174.608 73.2705 174.499C73.3084 174.366 73.4245 174.273 73.6188 174.221C74.0786 174.747 74.4531 175.07 74.7422 175.188C75.0076 175.264 75.3797 175.531 75.8584 175.991C75.8822 176.537 75.9604 177.08 76.0931 177.621C76.2448 178.096 76.1666 178.559 75.8586 179.01C75.9818 179.332 76.162 179.455 76.3989 179.379C76.6122 179.26 76.7994 179.296 76.9606 179.486C77.2165 179.846 77.3066 180.159 77.2308 180.425C79.1789 181.52 81.0795 182.78 82.9328 184.207C84.7624 185.591 86.6512 186.831 88.5993 187.925ZM83.9787 198.464C83.8886 197.9 83.8886 197.397 83.9786 196.955C84.1113 196.49 84.0331 195.947 83.7439 195.325C83.341 195.103 83.0708 194.918 82.9334 194.771C82.7722 194.581 82.5731 194.273 82.3361 193.846C80.663 193.045 79.0704 192.088 77.5584 190.974C76.0227 189.817 74.4609 188.815 72.8731 187.967C72.8826 188.185 72.8281 188.439 72.7096 188.729C72.5911 189.018 72.3328 189.106 71.9347 188.993C72.039 189.382 72.0319 189.721 71.9134 190.011C71.7712 190.258 71.5722 190.452 71.3163 190.595C71.0366 190.695 70.7238 190.785 70.3778 190.866C70.0508 190.881 69.7332 190.862 69.4251 190.81C68.7333 192.481 68.0295 194.131 67.3139 195.759C66.5983 197.387 66.0936 199.094 65.7999 200.878C65.6766 201.059 65.5937 201.161 65.551 201.185C65.4847 201.166 65.3686 201.258 65.2027 201.463C65.3118 202.464 65.3 203.448 65.1673 204.417C65.0536 205.318 64.9518 206.241 64.8618 207.186C64.7718 208.13 64.7694 209.082 64.8548 210.04C64.9402 210.999 65.2459 212.002 65.7721 213.051C66.829 213.244 67.8836 213.132 68.9358 212.714C69.988 212.295 71.0022 211.758 71.9786 211.102C72.9975 210.423 73.9502 209.724 74.8365 209.007C75.7417 208.223 76.6209 207.594 77.474 207.119C79.0285 205.694 80.256 204.283 81.1565 202.887C82.0332 201.449 82.974 199.974 83.9787 198.464ZM108.275 189.909C108.006 190.149 107.888 190.46 107.922 190.843C107.938 191.193 107.962 191.559 107.996 191.942C108.065 192.307 108.106 192.664 108.122 193.013C108.152 193.309 108.048 193.524 107.809 193.657C107.926 193.949 107.957 194.245 107.9 194.545C107.877 194.826 107.864 195.124 107.86 195.439C107.837 195.72 107.868 196.016 107.951 196.327C108.016 196.605 108.211 196.876 108.537 197.141C108.378 197.498 108.368 197.884 108.509 198.297C108.649 198.711 108.763 199.117 108.85 199.516C108.971 199.895 108.996 200.262 108.924 200.615C108.852 200.968 108.533 201.279 107.968 201.549C107.942 201.743 107.972 201.838 108.059 201.834C108.147 201.83 108.264 201.921 108.412 202.107C107.999 202.248 107.718 202.427 107.57 202.643C107.476 202.875 107.301 203.084 107.047 203.27C106.285 203.426 105.54 203.372 104.812 203.107C104.118 202.823 103.43 202.468 102.747 202.043C102.08 201.566 101.43 201.078 100.796 200.582C100.197 200.066 99.6455 199.635 99.1412 199.29C99.035 198.858 98.853 198.489 98.5951 198.186C98.3183 197.848 98.0282 197.607 97.7249 197.463C97.4251 192.98 97.1461 188.172 96.888 183.04C96.6299 177.907 96.2979 172.883 95.8919 167.967C96.8474 167.837 97.8143 167.768 98.7925 167.759C99.786 167.698 100.732 167.752 101.631 167.922C102.563 168.073 103.441 168.367 104.264 168.802C105.068 169.204 105.766 169.777 106.357 170.521C106.403 170.763 106.365 170.896 106.243 170.919C106.137 170.889 106.079 170.944 106.067 171.085C106.298 171.179 106.433 171.261 106.471 171.329C106.543 171.378 106.581 171.447 106.585 171.534C106.623 171.602 106.68 171.705 106.755 171.841C106.812 171.944 106.949 172.069 107.165 172.217C107.009 172.259 106.917 172.333 106.886 172.439C106.89 172.527 106.788 172.584 106.579 172.61C106.924 172.91 107.129 173.198 107.193 173.475C107.292 173.733 107.347 173.993 107.358 174.255C107.351 174.483 107.379 174.736 107.444 175.013C107.489 175.256 107.658 175.519 107.95 175.804C107.848 175.861 107.781 175.943 107.751 176.049C107.736 176.102 107.73 176.172 107.734 176.26C107.719 176.313 107.696 176.393 107.666 176.499C107.65 176.552 107.582 176.59 107.461 176.613C107.98 177.307 108.432 178.04 108.815 178.81C109.198 179.58 109.59 180.368 109.992 181.172C110.409 181.924 110.872 182.717 111.38 183.551C111.869 184.352 112.463 185.139 113.16 185.913C113.991 184.512 114.451 183.048 114.542 181.522C114.667 179.976 114.563 178.38 114.229 176.733C113.929 175.066 113.454 173.364 112.801 171.626C112.149 169.887 111.495 168.106 110.839 166.28C110.975 165.802 111.006 165.293 110.93 164.754C110.854 164.215 110.751 163.668 110.622 163.114C110.475 162.526 110.336 161.954 110.207 161.4C110.059 160.812 109.974 160.256 109.951 159.732C110.501 159.515 111.022 159.448 111.515 159.531C112.023 159.561 112.516 159.644 112.994 159.781C113.453 159.883 113.929 159.975 114.422 160.058C114.896 160.107 115.407 160.023 115.957 159.807C116.689 160.159 117.377 160.513 118.022 160.87C118.666 161.226 119.211 161.683 119.654 162.241C119.635 162.609 119.67 162.993 119.757 163.391C119.878 163.771 119.982 164.16 120.07 164.558C120.157 164.957 120.2 165.357 120.2 165.76C120.182 166.128 120.075 166.5 119.882 166.876C120.273 167.821 120.591 168.717 120.838 169.563C121.099 170.356 121.344 171.159 121.572 171.971C121.833 172.765 122.131 173.583 122.465 174.425C122.779 175.233 123.21 176.089 123.756 176.992C123.919 177.93 124.093 178.928 124.279 179.987C124.465 181.046 124.672 181.982 124.899 182.794C124.6 183.542 124.467 184.309 124.501 185.095C124.536 185.881 124.553 186.676 124.553 187.481C124.492 187.694 124.426 187.776 124.354 187.726C124.282 187.677 124.134 187.692 123.91 187.772C124.02 187.89 124.077 187.992 124.081 188.08C124.084 188.167 124.071 188.264 124.041 188.37C124.026 188.423 124.029 188.511 124.052 188.632C124.109 188.734 124.219 188.852 124.382 188.985C124.018 189.456 123.753 189.984 123.586 190.569C123.419 191.153 123.199 191.723 122.926 192.278C122.687 192.813 122.289 193.303 121.732 193.748C121.209 194.173 120.375 194.482 119.229 194.672C117.262 194.427 115.362 193.943 113.53 193.219C111.733 192.477 109.981 191.373 108.275 189.909ZM147.779 147.847C146.926 148.322 146.043 148.904 145.129 149.592C144.196 150.245 143.29 150.907 142.411 151.576C141.785 152.058 141.167 152.514 140.556 152.944C139.98 153.354 139.446 153.719 138.953 154.039C139.131 154.923 139.262 155.722 139.345 156.436C139.429 157.149 139.486 157.856 139.516 158.554C139.565 159.287 139.641 160.027 139.744 160.775C139.861 161.469 140.007 162.215 140.182 163.012C140.144 163.749 140.138 164.423 140.165 165.034C140.206 165.592 140.32 166.199 140.506 166.856C140.381 167.596 140.377 168.314 140.495 169.009C140.593 169.669 140.705 170.233 140.83 170.7L140.967 171.429C140.876 171.747 140.851 171.985 140.893 172.14C140.916 172.262 140.887 172.412 140.808 172.59C140.982 172.985 141.071 173.427 141.075 173.917C141.102 174.126 141.145 174.325 141.206 174.515C141.248 174.67 141.288 174.782 141.325 174.851C141.515 175.192 141.553 175.462 141.439 175.659C141.568 175.811 141.672 175.999 141.752 176.223C141.813 176.413 141.873 176.602 141.934 176.792C142.059 177.259 142.205 177.602 142.372 177.822C142.55 177.902 142.702 177.974 142.827 178.038C142.986 178.084 143.131 178.182 143.259 178.334C143.54 178.357 143.741 178.357 143.862 178.334C144.056 178.36 144.327 178.366 144.676 178.35L145.421 178.606C146.141 179.501 146.424 180.372 146.268 181.219C146.117 182.153 145.427 182.962 144.198 183.647L143.584 183.989C143.319 183.913 143.14 183.833 143.049 183.75C142.719 183.8 142.45 183.838 142.242 183.865C142.033 183.891 141.804 183.84 141.553 183.711C140.996 183.754 140.543 183.782 140.194 183.798L139.591 183.798C139.383 183.423 139.269 183.218 139.25 183.184C138.84 183.009 138.463 182.772 138.118 182.473C137.807 182.154 137.513 181.826 137.236 181.488C136.998 181.219 136.751 180.976 136.497 180.76C136.277 180.525 136.042 180.343 135.792 180.214C134.624 178.271 133.882 176.493 133.568 174.88C133.253 173.267 132.984 171.695 132.76 170.165C132.653 169.33 132.547 168.495 132.441 167.66C132.316 166.791 132.147 165.923 131.935 165.058L132.111 164.289C132.047 163.61 131.988 163.061 131.935 162.643C131.897 162.173 131.859 161.702 131.821 161.231C131.79 160.935 131.752 160.666 131.707 160.423C131.677 160.127 131.648 159.874 131.622 159.665C131.417 159.779 131.239 159.901 131.087 160.03C130.916 160.125 130.755 160.237 130.604 160.367C130.418 160.515 130.249 160.654 130.097 160.783C129.927 160.878 129.756 160.973 129.586 161.068C129.347 161.201 129.167 161.279 129.045 161.302C128.765 161.682 128.403 161.995 127.959 162.242L127.447 162.528C127.345 162.585 127.242 162.642 127.14 162.699C127.053 162.703 126.975 162.723 126.907 162.761C126.566 162.952 126.321 163.155 126.173 163.371C125.764 163.6 125.371 163.818 124.996 164.027L124.484 164.312C124.416 164.35 124.34 164.415 124.256 164.506C124.154 164.563 124.069 164.611 124.001 164.649C123.762 164.782 123.496 164.907 123.204 165.025C122.893 165.109 122.537 165.151 122.135 165.152C121.422 164.833 120.988 164.695 120.833 164.737L120.031 164.379C119.883 164.193 119.727 164.034 119.564 163.901C119.382 163.734 119.191 163.55 118.99 163.349C118.664 163.083 118.328 162.801 117.983 162.501C117.653 162.148 117.336 161.699 117.033 161.152C116.915 160.86 116.87 160.617 116.896 160.424C116.923 160.23 116.942 160.063 116.953 159.922L116.68 159.068L117.374 158.749L118.807 157.951C119.899 157.342 120.989 156.69 122.078 155.995C123.147 155.265 124.25 154.516 125.388 153.748C126.032 153.3 126.677 152.851 127.321 152.403C128 151.935 128.696 151.458 129.409 150.971C129.375 150.588 129.35 150.222 129.335 149.872L129.704 149.331C130.3 148.955 130.774 148.803 131.126 148.874C131.494 148.893 131.811 148.94 132.076 149.016C132.789 148.529 133.502 148.043 134.214 147.556C134.942 147.017 135.661 146.46 136.37 145.886C137.435 145.069 138.51 144.269 139.595 143.486C140.713 142.684 141.818 141.979 142.91 141.37C143.388 141.104 143.858 140.865 144.321 140.652C144.784 140.439 145.221 140.262 145.635 140.121L146.346 140.195C146.562 140.342 146.803 140.454 147.068 140.53C147.368 140.587 147.667 140.643 147.967 140.7C148.585 140.848 149.241 141.063 149.935 141.348C150.629 141.632 151.199 142.298 151.647 143.345C151.601 143.907 151.529 144.26 151.431 144.404L151.311 145.276L150.771 145.51C150.566 145.624 150.397 145.762 150.265 145.926C150.113 146.055 149.971 146.201 149.838 146.365C149.74 146.509 149.641 146.653 149.543 146.798C149.425 146.908 149.29 147.028 149.139 147.157C148.832 147.328 148.576 147.47 148.371 147.585C148.181 147.645 147.984 147.733 147.779 147.847ZM179.335 156.895C179.453 157.59 179.478 158.359 179.409 159.201C179.356 159.991 179.19 160.777 178.909 161.559C178.644 162.289 178.272 162.987 177.794 163.656C177.317 164.325 176.729 164.876 176.031 165.309C175.531 165.454 175.157 165.505 174.911 165.464C174.718 165.437 174.507 165.42 174.28 165.413C174.139 165.402 174.008 165.407 173.887 165.43C173.781 165.4 173.684 165.387 173.597 165.391L172.841 165.477L172.676 164.697C172.592 164.385 172.461 164.19 172.283 164.11C172.086 163.997 171.758 163.889 171.299 163.787C171.14 163.741 170.981 163.696 170.821 163.65C170.662 163.605 170.52 163.55 170.395 163.486L168.984 162.997L170.167 161.869C170.888 161.154 171.28 160.533 171.345 160.005C171.443 159.459 171.212 158.76 170.651 157.91C169.892 158.154 169.303 158.46 168.882 158.829C168.495 159.178 168.101 159.554 167.699 159.957C167.179 160.47 166.633 160.975 166.061 161.473C165.503 161.918 164.849 162.349 164.099 162.768C163.826 162.92 163.57 163.062 163.331 163.195C163.073 163.294 162.798 163.403 162.506 163.521L161.937 163.703C161.661 163.366 161.479 163.199 161.391 163.203C161.285 163.172 161.179 163.142 161.073 163.112C160.807 163.036 160.497 162.919 160.14 162.759C159.799 162.547 159.556 162.191 159.412 161.689C159.071 161.477 158.798 161.227 158.593 160.938C158.616 161.462 158.699 161.975 158.843 162.476L158.923 163.102L158.468 163.49C158.419 163.562 158.415 163.676 158.457 163.831C158.479 163.953 158.51 164.048 158.548 164.116L158.775 165.13C158.745 165.236 158.715 165.342 158.684 165.449C158.635 165.521 158.595 165.61 158.565 165.716C158.667 166.062 158.753 166.417 158.821 166.781C158.889 167.145 158.948 167.493 158.997 167.823C159.073 168.362 159.166 168.892 159.276 169.412C159.401 169.878 159.595 170.307 159.856 170.698L159.964 171.376C159.907 171.676 159.815 171.951 159.686 172.202C159.538 172.418 159.39 172.635 159.242 172.851C159.212 172.958 159.147 173.083 159.049 173.227C158.965 173.318 158.899 173.4 158.85 173.472L159.009 174.121L158.452 174.566C158.114 174.843 157.87 175.047 157.718 175.176C157.6 175.286 157.439 175.398 157.234 175.512L156.694 175.746C156.148 175.648 155.725 175.57 155.426 175.514C155.107 175.423 154.764 175.368 154.396 175.349C153.862 175.111 153.52 174.898 153.373 174.712C153.225 174.527 153.086 174.358 152.957 174.206C152.775 174.039 152.646 173.887 152.571 173.751C152.461 173.633 152.353 173.559 152.246 173.529L151.24 173.285L151.547 172.51L151.114 171.611C150.83 169.489 150.617 167.416 150.477 165.393C150.371 163.35 150.263 161.264 150.153 159.135C150.122 158.436 150.075 157.747 150.01 157.068C149.98 156.369 149.949 155.67 149.919 154.972C149.828 154.889 149.745 154.778 149.669 154.642C149.593 154.505 149.542 154.333 149.515 154.124C149.568 153.334 149.591 152.651 149.583 152.074C149.557 151.462 149.53 150.851 149.504 150.24C149.454 149.507 149.414 148.792 149.384 148.093C149.388 147.376 149.45 146.603 149.572 145.775L150.192 144.961C150.275 144.869 150.375 144.769 150.493 144.658C150.592 144.514 150.726 144.394 150.897 144.299L151.721 143.974C152.43 142.998 152.925 141.917 153.206 140.733C153.467 139.514 153.661 138.132 153.786 136.586L153.899 135.584L154.792 135.623C155.02 135.631 155.316 135.6 155.68 135.531C156.025 135.429 156.396 135.333 156.794 135.246C157.484 135.04 158.15 134.871 158.791 134.737C159.431 134.604 160.017 134.613 160.548 134.764C161.056 135.197 161.403 135.54 161.589 135.794C161.775 136.048 161.978 136.293 162.198 136.528C162.622 137.052 163.03 137.585 163.421 138.127C163.845 138.651 164.274 139.262 164.706 139.96C165.199 140.446 165.658 140.95 166.082 141.474C166.522 141.944 166.955 142.441 167.379 142.965C168.005 143.689 168.621 144.397 169.228 145.087C169.816 145.743 170.436 146.337 171.088 146.868C171.361 146.716 171.541 146.638 171.628 146.634C171.761 146.471 171.903 146.324 172.055 146.195C172.241 146.047 172.443 145.889 172.663 145.722L173.198 145.357L173.687 145.755C173.816 145.907 174.081 145.983 174.483 145.983C174.946 145.77 175.327 145.691 175.626 145.748C175.907 145.771 176.18 145.82 176.446 145.895C176.658 145.956 176.851 145.982 177.026 145.975L177.964 145.854L177.981 146.851C177.981 147.656 177.818 148.529 177.492 149.471C177.181 150.359 176.738 151.21 176.161 152.023C176.309 152.209 176.44 152.404 176.554 152.609C176.683 152.761 176.838 152.92 177.02 153.087C177.445 153.611 177.862 154.161 178.272 154.738C178.681 155.314 179.032 155.946 179.324 156.633L179.335 156.895ZM159.622 156.274C160.608 155.635 161.491 155.053 162.273 154.529C163.069 153.951 163.922 153.275 164.832 152.5C164.024 151.608 163.18 150.692 162.301 149.751C161.402 148.776 160.496 147.828 159.582 146.906L159.559 147.589C159.275 148.687 159.055 149.86 158.9 151.109C158.778 152.339 158.714 153.471 158.706 154.503C158.672 154.925 158.638 155.346 158.604 155.768C158.57 156.189 158.553 156.601 158.553 157.003C158.739 156.855 158.917 156.734 159.088 156.639C159.292 156.525 159.471 156.403 159.622 156.274ZM206.244 147.673C205.717 148.011 205.025 148.374 204.168 148.762C203.345 149.131 202.678 149.66 202.166 150.347C200.319 151.286 198.353 152.091 196.268 152.761C194.183 153.431 192.203 153.93 190.33 154.258C189.78 154.072 189.249 153.921 188.738 153.804C188.207 153.652 187.613 153.67 186.957 153.856C185.778 153.664 184.677 153.249 183.653 152.612C182.61 151.941 181.641 151.161 180.746 150.274C179.851 149.386 179.049 148.424 178.34 147.389C177.612 146.319 176.981 145.262 176.446 144.218C176.105 142.396 176.091 140.682 176.406 139.076C176.736 137.417 177.092 135.765 177.475 134.121C177.805 133.669 178.015 133.283 178.106 132.964C178.213 132.592 178.338 132.254 178.482 131.95C178.641 131.593 178.793 131.263 178.937 130.959C179.096 130.602 179.202 130.23 179.255 129.843C179.877 129.273 180.358 128.691 180.7 128.099C181.056 127.453 181.395 126.817 181.718 126.19C182.021 125.529 182.36 124.893 182.736 124.282C183.111 123.67 183.61 123.079 184.231 122.509C184.334 122.05 184.525 121.63 184.806 121.25C185.067 120.836 185.338 120.439 185.619 120.06C185.915 119.627 186.176 119.213 186.404 118.818C186.665 118.403 186.804 117.969 186.819 117.513C187.141 117.691 187.437 117.661 187.706 117.421C187.956 117.148 188.19 116.884 188.406 116.629C188.557 116.5 188.713 116.458 188.872 116.503C189.065 116.53 189.242 116.566 189.401 116.611C189.56 116.657 189.684 116.677 189.771 116.674C189.873 116.617 189.911 116.484 189.884 116.275C190.055 116.18 190.154 116.237 190.18 116.445C190.207 116.654 190.222 116.802 190.226 116.89C190.48 116.703 190.74 116.648 191.005 116.724C191.286 116.746 191.64 116.661 192.068 116.467C192.3 116.561 192.41 116.679 192.398 116.819C192.368 116.926 192.41 117.081 192.524 117.286C193.718 117.023 194.641 117.157 195.293 117.688C195.927 118.185 196.323 118.859 196.482 119.709C196.642 120.559 196.585 121.463 196.312 122.42C196.039 123.377 195.601 124.157 194.998 124.761C193.607 126.118 192.329 127.478 191.165 128.842C190.016 130.153 189.265 131.577 188.913 133.115C188.227 133.81 187.673 134.543 187.252 135.314C186.846 136.032 186.496 136.809 186.2 137.644C185.92 138.427 185.675 139.233 185.466 140.065C185.273 140.844 185.046 141.641 184.784 142.457C185.084 142.917 185.207 143.34 185.154 143.727C185.116 144.061 185.088 144.412 185.069 144.781C185.421 145.255 185.797 145.649 186.195 145.964C186.574 146.245 186.97 146.516 187.384 146.778C190.015 146.206 192.641 145.302 195.261 144.066C197.915 142.811 200.531 141.488 203.109 140.096C203.538 140.304 203.991 140.477 204.469 140.613C204.962 140.696 205.439 140.833 205.902 141.022C206.346 141.177 206.767 141.412 207.165 141.727C207.544 142.008 207.843 142.467 208.063 143.104C207.87 143.883 207.607 144.656 207.273 145.423C206.92 146.156 206.577 146.906 206.244 147.673ZM227.053 103.684C226.2 104.16 225.316 104.741 224.403 105.429C223.47 106.083 222.564 106.744 221.684 107.413C221.058 107.896 220.44 108.352 219.83 108.781C219.254 109.192 218.719 109.557 218.226 109.876C218.404 110.76 218.535 111.56 218.619 112.273C218.702 112.987 218.759 113.693 218.789 114.391C218.839 115.124 218.915 115.864 219.017 116.612C219.135 117.307 219.281 118.053 219.455 118.85C219.417 119.586 219.412 120.26 219.438 120.871C219.48 121.429 219.594 122.037 219.78 122.693C219.654 123.434 219.651 124.151 219.768 124.846C219.867 125.507 219.979 126.07 220.104 126.537L220.24 127.266C220.149 127.585 220.125 127.822 220.167 127.978C220.189 128.099 220.161 128.249 220.081 128.428C220.256 128.822 220.345 129.265 220.349 129.754C220.375 129.963 220.419 130.162 220.48 130.352C220.521 130.508 220.561 130.62 220.599 130.688C220.789 131.03 220.827 131.299 220.713 131.497C220.842 131.648 220.946 131.836 221.026 132.06C221.086 132.25 221.147 132.44 221.208 132.629C221.333 133.096 221.479 133.44 221.646 133.66C221.824 133.739 221.976 133.811 222.101 133.876C222.26 133.921 222.404 134.02 222.533 134.172C222.814 134.194 223.015 134.194 223.136 134.171C223.329 134.198 223.6 134.203 223.949 134.188L224.694 134.443C225.415 135.339 225.697 136.21 225.542 137.056C225.39 137.99 224.7 138.8 223.472 139.484L222.857 139.826C222.592 139.75 222.414 139.671 222.323 139.587C221.993 139.637 221.724 139.675 221.515 139.702C221.307 139.729 221.077 139.678 220.827 139.549C220.27 139.591 219.816 139.62 219.468 139.635L218.865 139.636C218.656 139.26 218.542 139.055 218.523 139.021C218.114 138.847 217.737 138.61 217.392 138.31C217.081 137.992 216.787 137.663 216.51 137.326C216.271 137.056 216.025 136.814 215.771 136.597C215.551 136.362 215.316 136.18 215.065 136.051C213.897 134.109 213.156 132.331 212.841 130.717C212.526 129.104 212.257 127.533 212.033 126.003C211.927 125.168 211.821 124.333 211.715 123.497C211.589 122.628 211.421 121.761 211.208 120.895L211.385 120.126C211.32 119.447 211.261 118.898 211.208 118.481C211.17 118.01 211.132 117.539 211.094 117.069C211.064 116.773 211.026 116.503 210.98 116.26C210.95 115.964 210.922 115.712 210.895 115.503C210.69 115.617 210.512 115.738 210.361 115.868C210.19 115.963 210.029 116.075 209.877 116.204C209.691 116.352 209.523 116.491 209.371 116.62C209.2 116.715 209.03 116.81 208.859 116.905C208.62 117.038 208.44 117.116 208.319 117.139C208.038 117.519 207.676 117.833 207.232 118.08L206.721 118.365C206.618 118.422 206.516 118.479 206.413 118.536C206.326 118.54 206.249 118.561 206.18 118.599C205.839 118.789 205.594 118.992 205.447 119.209C205.037 119.437 204.645 119.656 204.269 119.865L203.757 120.15C203.689 120.188 203.613 120.252 203.53 120.344C203.428 120.401 203.342 120.448 203.274 120.486C203.035 120.619 202.77 120.745 202.478 120.863C202.167 120.946 201.81 120.989 201.409 120.989C200.696 120.671 200.262 120.532 200.106 120.574L199.304 120.216C199.156 120.03 199.001 119.871 198.838 119.738C198.656 119.571 198.464 119.387 198.263 119.186C197.937 118.921 197.602 118.638 197.256 118.339C196.927 117.986 196.61 117.536 196.307 116.99C196.189 116.698 196.143 116.455 196.17 116.261C196.197 116.067 196.215 115.9 196.227 115.76L195.954 114.906L196.648 114.586L198.081 113.788C199.173 113.18 200.263 112.528 201.351 111.832C202.42 111.102 203.524 110.353 204.661 109.585C205.306 109.137 205.95 108.688 206.595 108.24C207.274 107.772 207.969 107.295 208.682 106.809C208.648 106.425 208.623 106.059 208.608 105.71L208.978 105.169C209.573 104.792 210.047 104.64 210.4 104.712C210.768 104.73 211.084 104.778 211.35 104.853C212.062 104.367 212.775 103.88 213.488 103.394C214.216 102.854 214.934 102.297 215.644 101.723C216.709 100.906 217.784 100.106 218.868 99.3233C219.987 98.5213 221.092 97.8162 222.184 97.2078C222.662 96.9417 223.132 96.7021 223.594 96.4891C224.057 96.2762 224.495 96.0993 224.908 95.9585L225.619 96.0319C225.835 96.1798 226.076 96.2916 226.342 96.3673C226.641 96.424 226.941 96.4807 227.24 96.5374C227.858 96.6849 228.514 96.9008 229.208 97.1849C229.902 97.4691 230.473 98.1349 230.92 99.1824C230.875 99.7443 230.803 100.097 230.704 100.242L230.585 101.113L230.044 101.347C229.84 101.461 229.671 101.6 229.538 101.763C229.387 101.892 229.244 102.039 229.112 102.202C229.013 102.346 228.915 102.491 228.816 102.635C228.698 102.745 228.564 102.865 228.412 102.994C228.105 103.165 227.849 103.308 227.644 103.422C227.455 103.483 227.258 103.57 227.053 103.684ZM269.738 74.0023C270.224 74.7157 270.703 75.298 271.177 75.7494C271.651 76.2008 272.133 76.6256 272.622 77.0238C273.058 77.4069 273.477 77.7995 273.879 78.2016C274.296 78.5505 274.719 79.0304 275.147 79.6413C275.367 80.6813 275.618 81.615 275.898 82.4424C276.213 83.2508 276.53 84.1029 276.848 84.9986C276.966 86.498 277.025 87.8514 277.025 89.0587C277.025 90.266 277.061 91.2967 277.133 92.1508C277.057 92.4166 277.017 92.7071 277.014 93.0222C277.025 93.2841 277.029 93.5727 277.025 93.8878C277.014 94.0283 277.014 94.2295 277.025 94.4914C277.036 94.7534 277.027 94.9375 276.997 95.0438L275.774 95.2555L276.28 96.6503L275.677 97.2544L275.507 98.1543C275.484 99.6426 275.332 100.979 275.052 102.164C274.752 103.314 274.313 104.454 273.733 105.582C273.168 106.657 272.447 107.773 271.571 108.932C270.73 110.072 269.763 111.348 268.671 112.761C268.053 113.016 267.522 113.267 267.079 113.514C266.65 113.708 266.239 113.893 265.844 114.068C265.196 114.429 264.366 114.824 263.353 115.254C263.099 115.038 262.841 114.936 262.58 114.947C262.318 114.959 262.102 115.012 261.931 115.107C261.2 115.157 260.538 115.012 259.946 114.67C259.37 114.276 258.775 113.848 258.16 113.385C257.781 113.104 257.421 112.858 257.08 112.645C256.719 112.399 256.342 112.162 255.948 111.935L256.676 111.194L254.867 110.591C254.742 110.527 254.609 110.489 254.469 110.478C254.31 110.433 254.168 110.378 254.042 110.313L253.536 109.522C252.126 107.223 250.88 105.099 249.799 103.153C248.734 101.153 248.03 99.242 247.689 97.42L247.376 96.8565C247.061 96.0481 246.822 95.3763 246.659 94.8412C246.477 94.2718 246.297 93.7462 246.119 93.2642C245.804 92.4558 245.569 91.6701 245.413 90.9072C245.834 90.5386 246.088 90.1511 246.175 89.7448C246.244 89.3044 246.297 88.9171 246.335 88.583C246.793 88.2827 247.155 88.1704 247.421 88.2461C247.686 88.3218 248.009 88.5 248.388 88.7806C248.729 88.9929 249.123 89.2204 249.571 89.463C250.052 89.6866 250.606 89.7582 251.232 89.678C251.452 89.9132 251.698 90.156 251.971 90.4063C252.259 90.6035 252.566 90.8348 252.892 91.1003C253.488 91.5288 254.068 92.0105 254.633 92.5453C255.213 93.027 255.681 93.5486 256.038 94.1102C256.057 94.9492 256.201 95.8526 256.47 96.8205C256.774 97.7693 257.138 98.7067 257.562 99.6327C258.002 100.506 258.484 101.333 259.007 102.114C259.546 102.843 260.069 103.423 260.577 103.856L261.254 104.351L262.067 103.763C262.939 102.92 263.7 102.116 264.348 101.353C265.011 100.536 265.578 99.7058 266.048 98.8626C266.518 98.0194 266.917 97.1269 267.243 96.1851C267.55 95.2092 267.843 94.1289 268.124 92.9441C268.404 91.7594 268.526 90.5293 268.488 89.2537C268.465 87.925 268.321 86.6191 268.055 85.3361C267.824 84.0341 267.5 82.8063 267.083 81.6525C266.681 80.4455 266.248 79.3449 265.786 78.3506C266.252 77.8226 266.314 77.2511 265.973 76.6364L265.558 76.1299C265.308 76.001 265.175 75.762 265.16 75.4127C265.004 74.6498 265.207 73.8884 265.768 73.1287C266.504 73.166 267.19 73.2755 267.827 73.4572C268.498 73.6199 269.135 73.8016 269.738 74.0023ZM274.193 79.5024C274.033 78.6522 274.067 77.8283 274.295 77.0309C274.556 76.2144 274.9 75.4643 275.324 74.7806C275.764 74.0437 276.259 73.3657 276.809 72.7464C277.358 72.1271 277.893 71.561 278.412 71.0481C279.455 69.707 280.602 68.3527 281.853 66.9849C283.12 65.564 284.441 64.2019 285.817 62.8986C287.228 61.5762 288.758 60.3886 290.407 59.3356C292.037 58.2485 293.943 57.4553 296.123 56.9562C296.415 57.2407 296.748 57.4796 297.124 57.6729C297.499 57.8662 297.875 58.0595 298.25 58.2528C298.66 58.4271 299.035 58.6204 299.376 58.8327C299.698 59.0109 299.962 59.2442 300.167 59.5325C300.679 59.6498 301.141 59.8392 301.555 60.1008C301.949 60.3283 302.239 60.7703 302.425 61.427C302.235 61.8903 302.036 62.3365 301.828 62.7657C301.634 63.1417 301.397 63.5197 301.117 63.8995C299.684 64.2956 298.347 64.906 297.107 65.7308C295.867 66.5557 294.755 67.2874 293.769 67.9261C293.291 67.7898 292.83 67.8452 292.387 68.0923C291.977 68.3205 291.571 68.6359 291.17 69.0387C290.802 69.4224 290.417 69.8157 290.015 70.2184C289.647 70.6022 289.24 70.8739 288.792 71.0338C288.603 71.4971 288.28 71.9226 287.825 72.3102C287.386 72.6446 286.895 73.0076 286.352 73.3991C286.413 73.5888 286.514 73.6894 286.654 73.7006C286.775 73.6778 286.849 73.7707 286.876 73.9795C287.213 74.1045 287.564 74.1327 287.928 74.064C288.326 73.9764 288.724 73.8887 289.122 73.8011C289.555 73.6944 289.955 73.6505 290.322 73.6691C290.671 73.6537 290.992 73.7882 291.284 74.0727C291.795 73.7875 292.305 73.6599 292.813 73.6898C293.322 73.7198 293.79 73.839 294.218 74.0474C294.647 74.2559 295.026 74.5365 295.356 74.8893C295.701 75.1889 295.959 75.4924 296.129 75.7998C296.384 76.016 296.569 76.069 296.687 75.9588C296.804 75.8486 296.996 75.8314 297.261 75.9071C297.61 76.294 298.122 76.6125 298.797 76.8625C299.453 77.0784 300.052 77.393 300.594 77.8063C301.137 78.6221 301.614 79.362 302.028 80.0261C302.422 80.656 302.672 81.3885 302.779 82.2236C302.968 83.7724 302.877 85.2986 302.506 86.8023C302.168 88.287 301.638 89.7453 300.914 91.1771C300.205 92.5558 299.353 93.8796 298.36 95.1484C297.367 96.4173 296.36 97.5817 295.34 98.6418C295.185 98.6837 295.048 98.7597 294.931 98.8699C294.813 98.9801 294.732 98.9137 294.686 98.6708C294.546 99.0619 294.324 99.3867 294.021 99.6451C293.751 99.8845 293.42 100.092 293.025 100.267C292.65 100.476 292.248 100.677 291.82 100.871C291.425 101.046 291.076 101.263 290.773 101.521C290.402 101.415 290.047 101.3 289.71 101.175C289.425 101.065 289.137 100.868 288.845 100.583C288.674 100.678 288.542 100.641 288.447 100.47C288.386 100.28 288.288 100.223 288.151 100.299C288.166 99.8436 288.147 99.6082 288.094 99.5931C288.056 99.5248 287.977 99.5021 287.855 99.525C287.768 99.5288 287.681 99.5327 287.594 99.5366C287.488 99.5063 287.423 99.4304 287.4 99.3089C287.385 98.9597 287.266 98.6238 287.042 98.3013C286.799 97.9446 286.557 97.5879 286.314 97.2313C286.071 96.8746 285.889 96.5065 285.768 96.127C285.681 95.7284 285.785 95.3126 286.081 94.8796C287.317 94.3698 288.39 93.7273 289.3 92.9521C290.225 92.1237 291.034 91.248 291.728 90.3249C292.422 89.4017 293.046 88.473 293.599 87.5386C294.187 86.5852 294.786 85.6926 295.396 84.8606C295.328 84.4962 295.322 84.1641 295.379 83.8641C295.47 83.5451 295.571 83.2432 295.681 82.9584C295.79 82.6736 295.874 82.3812 295.931 82.0812C295.988 81.7812 295.965 81.4586 295.862 81.1132C295.764 80.8551 295.62 80.7565 295.43 80.8174C295.256 80.8251 295.112 80.7265 294.998 80.5216L294.35 80.6816C293.493 80.6671 292.588 80.7685 291.637 80.9857C290.666 81.1687 289.805 81.2681 289.054 81.2839C288.793 81.698 288.463 81.9488 288.065 82.0365C287.701 82.1051 287.234 82.2308 286.666 82.4135C285.468 82.9915 284.275 83.4993 283.088 83.9369C281.936 84.3555 280.741 84.6184 279.505 84.7257C279.342 84.593 279.171 84.4868 278.993 84.4073C278.815 84.3277 278.608 84.3981 278.373 84.6185C278.017 84.4593 277.67 84.3172 277.332 84.1922C276.976 84.0331 276.627 83.8473 276.286 83.635C276.127 83.1872 275.988 82.8171 275.871 82.5249C275.734 82.1985 275.471 81.9653 275.08 81.8251C274.97 81.3051 274.873 80.8895 274.79 80.5782C274.706 80.267 274.507 79.9084 274.193 79.5024Z" fill="#ECE6DC"/>
</g>
<defs>
<filter id="filter0_dd" x="-5" y="-8" width="330" height="329" filterUnits="userSpaceOnUse" color-interpolation-filters="sRGB">
<feFlood flood-opacity="0" result="BackgroundImageFix"/>
<feColorMatrix in="SourceAlpha" type="matrix" values="0 0 0 0 0 0 0 0 0 0 0 0 0 0 0 0 0 0 127 0"/>
<feOffset dx="-4" dy="-4"/>
<feGaussianBlur stdDeviation="2"/>
<feColorMatrix type="matrix" values="0 0 0 0 1 0 0 0 0 0.972549 0 0 0 0 0.929412 0 0 0 0.65 0"/>
<feBlend mode="normal" in2="BackgroundImageFix" result="effect1_dropShadow"/>
<feColorMatrix in="SourceAlpha" type="matrix" values="0 0 0 0 0 0 0 0 0 0 0 0 0 0 0 0 0 0 127 0"/>
<feOffset dy="4"/>
<feGaussianBlur stdDeviation="2"/>
<feColorMatrix type="matrix" values="0 0 0 0 0 0 0 0 0 0 0 0 0 0 0 0 0 0 0.5 0"/>
<feBlend mode="normal" in2="effect1_dropShadow" result="effect2_dropShadow"/>
<feBlend mode="normal" in="SourceGraphic" in2="effect2_dropShadow" result="shape"/>
</filter>
</defs>
</svg>
