<svg width="318" height="313" viewBox="0 0 318 313" fill="none" xmlns="http://www.w3.org/2000/svg">
<g filter="url(#filter0_dd)">
<path d="M32.6578 172.174C33.312 174.285 35.5518 175.464 37.6607 174.808C39.7696 174.152 40.9489 171.909 40.2948 169.798L32.6578 172.174ZM220.78 66.7932C222.473 68.2116 224.994 67.9873 226.412 66.2922C227.83 64.5971 227.607 62.0731 225.915 60.6546L220.78 66.7932ZM40.2948 169.798C27.1038 127.235 51.1609 84.3132 89.7558 60.4355C128.22 36.6389 179.95 32.5755 220.78 66.7932L225.915 60.6546C181.871 23.7431 126.26 28.4441 85.555 53.6276C44.9806 78.7299 18.0393 125.004 32.6578 172.174L40.2948 169.798Z" fill="#ECE6DC"/>
<path d="M77.1171 255.062C75.6116 253.446 75.7005 250.914 77.3157 249.406C78.9308 247.898 81.4606 247.985 82.9661 249.601L77.1171 255.062ZM262.96 145.672C262.629 143.487 264.13 141.446 266.313 141.113C268.496 140.78 270.534 142.281 270.865 144.466L262.96 145.672ZM82.9661 249.601C111.811 280.562 160.311 280.523 200.477 259.115C240.495 237.786 270.598 196.025 262.96 145.672L270.865 144.466C279.149 199.074 246.358 243.727 204.231 266.18C162.253 288.554 109.357 289.667 77.1171 255.062L82.9661 249.601Z" fill="#ECE6DC"/>
<path d="M32.5584 188.54C30.7637 188.526 29.1104 188.016 27.5988 187.01C26.0871 186.004 24.9318 184.889 24.1329 183.665C23.6627 182.496 23.4907 181.489 23.6171 180.643C23.6727 179.777 23.8951 178.998 24.2843 178.304C24.6483 177.565 25.0982 176.926 25.6341 176.389C26.1446 175.807 26.6578 175.282 27.1734 174.816L28.3868 174.588C28.7407 174.689 29.0819 174.767 29.4105 174.822C29.7846 174.852 30.136 174.895 30.4646 174.95C30.8185 174.515 30.9398 174.089 30.8286 173.674C30.7628 173.234 30.6971 172.794 30.6313 172.353C30.4897 171.776 30.3709 171.187 30.2748 170.585C30.1787 169.982 30.1281 169.355 30.123 168.702C29.85 168.317 29.6705 167.94 29.5846 167.571C29.4986 167.201 29.4379 166.877 29.4025 166.599C29.0031 166.523 28.7352 166.524 28.5987 166.6C28.4824 166.605 28.2625 166.638 27.9389 166.699C27.8024 166.775 27.6659 166.851 27.5294 166.927C27.3676 166.958 27.1831 167.001 26.9758 167.057C26.0152 166.936 25.3327 166.78 24.9283 166.588C24.544 166.325 24.137 166.074 23.7073 165.837C23.2775 165.599 22.8958 165.395 22.5622 165.223C22.2285 165.051 21.8847 164.915 21.5308 164.814L20.4084 164.723L20.3629 163.676C20.4033 163.534 20.3856 163.395 20.3098 163.258C20.2086 163.076 19.9786 162.876 19.6196 162.659C19.1545 162.143 18.8916 161.723 18.8309 161.399L18.5123 160.503C18.6387 159.658 18.6993 159.177 18.6943 159.061L18.9975 157.997C19.8923 157.141 20.7972 156.249 21.7123 155.322C22.602 154.35 23.469 153.39 24.3132 152.442C25.1575 151.495 26.0245 150.535 26.9142 149.563C27.8039 148.59 28.719 147.663 29.6593 146.781C29.8463 146.26 30.1319 145.862 30.5161 145.589C30.9206 145.244 31.2921 144.948 31.6308 144.699C31.9493 144.522 32.2324 144.334 32.4802 144.137C32.7279 143.939 32.8694 143.711 32.9048 143.453C33.5266 142.749 34.1509 142.103 34.7778 141.515C35.9405 140.391 37.4976 138.957 39.449 137.214C41.4003 135.471 43.7006 133.713 46.3496 131.939L47.7449 131.072C48.0432 130.965 48.3288 130.836 48.6018 130.684C48.8496 130.486 49.1099 130.311 49.3829 130.159C51.7489 128.841 53.7231 128.695 55.3056 129.722C55.887 129.696 56.4608 129.764 57.027 129.925C57.568 130.041 58.0862 130.17 58.5816 130.311C58.9355 130.412 59.254 130.503 59.5372 130.584C59.795 130.619 60.0175 130.644 60.2045 130.659L61.0539 130.901C62.1611 131.715 62.8462 132.735 63.1092 133.96C63.1395 134.658 63.0207 135.142 62.7528 135.41C62.4849 135.679 62.2169 135.947 61.949 136.216L61.3272 137.188C60.7104 137.472 60.2428 137.703 59.9243 137.88C59.6513 138.032 59.3328 138.21 58.9688 138.413C57.6039 139.173 56.0619 140.151 54.3431 141.347C52.6445 142.472 50.9509 143.714 49.2624 145.072C47.5486 146.384 45.9309 147.763 44.4092 149.206C42.8623 150.605 41.5681 151.922 40.5267 153.158C40.3144 153.634 39.9757 154.151 39.5106 154.708C39.3994 154.829 39.2578 155.057 39.086 155.391C39.3337 155.73 39.5359 156.095 39.6927 156.484C39.8242 156.828 39.9329 157.185 40.0188 157.555C40.0997 157.808 40.1933 158.084 40.2995 158.382C40.4259 158.61 40.5422 158.873 40.6484 159.171C40.3249 160.842 40.6157 162.439 41.5207 163.962L41.5587 164.835C41.4778 165.119 41.4702 165.48 41.536 165.921C41.6219 166.29 41.8116 166.632 42.1048 166.945L42.8328 167.613C43.6923 167.015 44.5289 166.43 45.3429 165.857C46.177 165.213 47.0567 164.544 47.9818 163.85C49.1294 162.913 50.3022 162.021 51.5004 161.175C52.7187 160.257 54.0332 159.406 55.4436 158.62L58.1053 157.137L57.8324 158.094L58.621 157.744L58.8183 159.065C59.2126 159.024 59.5033 159.012 59.6904 159.027C59.8977 158.971 60.0948 158.95 60.2819 158.965L61.1388 159.382C61.4422 159.392 61.7733 159.506 62.1323 159.723C62.466 159.895 62.7946 160.219 63.1182 160.694L63.2927 161.491L62.3602 167.377L62.2541 168.151L61.4578 168.326C60.5681 168.762 59.7996 169.31 59.1526 169.968C58.8391 170.262 58.5156 170.592 58.1819 170.956C57.823 171.275 57.4388 171.549 57.0293 171.777C56.0384 172.568 55.2169 173.234 54.5648 173.776C53.8873 174.273 53.2099 174.769 52.5325 175.266C51.6326 176.006 50.7555 176.733 49.9012 177.447C49.067 178.091 48.3289 178.8 47.6869 179.575C47.2117 179.9 46.9286 180.087 46.8376 180.138C46.7213 180.143 46.6177 180.171 46.5267 180.222C46.0717 180.475 45.6546 180.797 45.2755 181.187C44.8963 181.577 44.5399 181.954 44.2063 182.319C44.0597 182.699 44.0167 183.051 44.0774 183.375C44.1128 183.653 44.1608 183.954 44.2215 184.278C44.3075 184.648 44.348 185.042 44.3429 185.463C44.3581 185.812 44.3404 186.209 44.2899 186.655L45.0407 187.846C44.6818 188.165 44.515 188.348 44.5403 188.393C44.5403 188.393 44.5175 188.406 44.472 188.431C44.6742 188.796 44.7956 189.175 44.8361 189.57C44.922 189.939 44.9954 190.286 45.056 190.61C45.0662 190.843 45.0864 191.04 45.1167 191.202C45.1471 191.364 45.2002 191.513 45.276 191.65C46.1861 192.216 46.8181 193.086 47.172 194.26C47.4704 195.227 47.5589 196.191 47.4376 197.153C47.291 198.069 46.9776 198.9 46.4974 199.644C45.82 200.141 45.2613 200.422 44.8215 200.488C44.4272 200.529 44.0101 200.583 43.5702 200.649C43.2922 200.685 43.0268 200.743 42.774 200.824C42.4959 200.86 42.2305 200.918 41.9777 201L40.7795 200.773C40.4914 200.576 40.1931 200.414 39.8847 200.288C39.551 200.116 39.2173 199.944 38.8836 199.772C38.4792 199.58 38.0747 199.388 37.6702 199.196C37.2658 199.004 36.8588 198.754 36.4493 198.445C35.2459 197.029 34.4446 195.746 34.0451 194.598C33.6659 193.378 33.3675 192.143 33.15 190.893C33.0388 190.478 32.9402 190.086 32.8542 189.717C32.7683 189.347 32.6697 188.955 32.5584 188.54ZM104.29 139.904C104.548 140.476 104.884 140.974 105.299 141.399C105.714 141.824 106.151 142.236 106.611 142.635C107.091 142.964 107.561 143.328 108.022 143.728C108.482 144.127 108.896 144.552 109.265 145.002C109.71 145.589 110.102 146.295 110.441 147.12C110.754 147.899 111 148.716 111.177 149.572C111.328 150.381 111.386 151.184 111.351 151.978C111.291 152.728 111.086 153.378 110.737 153.93C110.555 155.105 110.135 156.173 109.478 157.135C108.821 158.098 108.283 159.113 107.863 160.182C107.54 160.779 107.097 161.324 106.536 161.815C106.021 162.281 105.482 162.76 104.921 163.251C104.572 163.804 104.145 164.429 103.639 165.128C103.109 165.781 102.555 166.448 101.979 167.126C101.377 167.76 100.75 168.347 100.098 168.889C99.4208 169.386 98.7964 169.764 98.2252 170.022C97.1383 171.284 95.973 172.35 94.7294 173.222C93.5565 174.114 92.0045 174.859 90.0732 175.458C88.5617 176.598 86.9995 177.379 85.3868 177.8C83.8196 178.197 82.2751 178.312 80.7533 178.146C79.2518 177.909 77.7882 177.473 76.3624 176.836C74.9569 176.129 73.6627 175.299 72.4796 174.349C70.6746 171.956 69.4636 169.56 68.8467 167.161C68.2045 164.717 67.8909 162.328 67.906 159.994C67.9412 157.59 68.2015 155.269 68.6867 153.031C69.1466 150.748 69.5864 148.535 70.0059 146.394C70.3294 146.333 70.5342 146.219 70.6201 146.052C70.7263 145.814 70.797 145.566 70.8324 145.307C70.8425 145.004 70.8652 144.723 70.9006 144.464C70.9815 144.181 71.123 143.953 71.3252 143.781C71.2645 142.92 71.4414 142.166 71.856 141.518C72.2907 140.799 72.5131 140.019 72.5232 139.179C72.8821 138.859 73.1475 138.533 73.3194 138.198C73.4913 137.864 73.6277 137.52 73.7288 137.165C73.8754 136.786 74.0347 136.429 74.2065 136.094C74.3531 135.715 74.5831 135.378 74.8966 135.084L74.4794 134.333C75.0962 133.512 75.4601 132.773 75.5713 132.115C75.7027 131.386 75.8518 130.527 76.0186 129.54C76.4028 129.267 76.7087 129.066 76.9362 128.94C77.2092 128.788 77.5706 128.527 78.0206 128.157C78.0306 127.316 78.0837 126.661 78.1797 126.19C78.3212 125.694 78.5866 125.099 78.9759 124.405C79.6736 124.374 80.3662 124.227 81.0537 123.963C81.7868 123.674 82.5426 123.64 83.3212 123.862C83.6195 124.292 83.9582 124.581 84.3374 124.727C84.6913 124.828 85.0679 124.916 85.4673 124.992C85.8415 125.022 86.2055 125.087 86.5594 125.188C86.9588 125.264 87.3177 125.481 87.6363 125.84C87.8435 125.785 87.9446 125.698 87.9396 125.582C87.98 125.44 88.1039 125.341 88.3112 125.286C88.8016 125.847 89.201 126.191 89.5094 126.317C89.7925 126.398 90.1894 126.684 90.7 127.174C90.7254 127.756 90.8088 128.336 90.9504 128.913C91.1122 129.419 91.0288 129.913 90.7002 130.394C90.8317 130.738 91.0238 130.869 91.2766 130.788C91.5041 130.661 91.7038 130.699 91.8757 130.901C92.1487 131.286 92.2448 131.62 92.1639 131.903C94.2418 133.071 96.2692 134.416 98.2461 135.938C100.198 137.414 102.212 138.736 104.29 139.904ZM99.3616 151.145C99.2656 150.543 99.2655 150.007 99.3616 149.536C99.5031 149.04 99.4196 148.46 99.1112 147.797C98.6815 147.56 98.3933 147.362 98.2467 147.206C98.0748 147.003 97.8624 146.674 97.6096 146.219C95.8249 145.365 94.1262 144.344 92.5134 143.156C90.8753 141.922 89.2094 140.853 87.5157 139.948C87.5258 140.181 87.4677 140.452 87.3413 140.761C87.2149 141.07 86.9394 141.163 86.5147 141.042C86.626 141.457 86.6184 141.819 86.492 142.128C86.3404 142.392 86.1281 142.599 85.8551 142.751C85.5568 142.858 85.2231 142.954 84.8541 143.041C84.5052 143.056 84.1665 143.036 83.8379 142.981C83.0999 144.763 82.3492 146.523 81.5859 148.26C80.8226 149.997 80.2843 151.817 79.9709 153.72C79.8395 153.913 79.751 154.022 79.7055 154.047C79.6347 154.027 79.5109 154.126 79.3339 154.343C79.4503 155.411 79.4377 156.462 79.2962 157.495C79.1749 158.456 79.0663 159.441 78.9703 160.448C78.8743 161.456 78.8718 162.471 78.9628 163.493C79.0539 164.516 79.38 165.586 79.9413 166.704C81.0687 166.911 82.1936 166.791 83.3159 166.345C84.4382 165.898 85.5201 165.325 86.5615 164.626C87.6484 163.901 88.6646 163.156 89.6099 162.391C90.5755 161.555 91.5133 160.883 92.4233 160.377C94.0815 158.857 95.3908 157.352 96.3513 155.863C97.2865 154.329 98.2899 152.756 99.3616 151.145ZM148.033 115.535C148.291 116.107 148.627 116.605 149.042 117.03C149.456 117.455 149.894 117.867 150.354 118.267C150.834 118.595 151.304 118.959 151.764 119.359C152.224 119.758 152.639 120.183 153.008 120.634C153.453 121.22 153.845 121.926 154.184 122.751C154.497 123.53 154.742 124.348 154.919 125.203C155.071 126.013 155.129 126.815 155.094 127.61C155.033 128.359 154.828 129.009 154.48 129.562C154.298 130.736 153.878 131.804 153.221 132.767C152.564 133.729 152.025 134.744 151.606 135.813C151.282 136.41 150.84 136.955 150.279 137.446C149.763 137.913 149.225 138.391 148.664 138.883C148.315 139.435 147.888 140.06 147.382 140.759C146.851 141.413 146.298 142.079 145.721 142.758C145.12 143.391 144.493 143.979 143.841 144.521C143.163 145.017 142.539 145.395 141.968 145.654C140.881 146.915 139.716 147.981 138.472 148.853C137.299 149.745 135.747 150.49 133.816 151.089C132.304 152.229 130.742 153.01 129.129 153.432C127.562 153.828 126.018 153.943 124.496 153.777C122.994 153.541 121.531 153.104 120.105 152.467C118.7 151.76 117.405 150.931 116.222 149.98C114.417 147.587 113.206 145.191 112.589 142.793C111.947 140.348 111.634 137.959 111.649 135.626C111.684 133.221 111.944 130.9 112.429 128.662C112.889 126.379 113.329 124.167 113.749 122.025C114.072 121.964 114.277 121.85 114.363 121.683C114.469 121.445 114.54 121.197 114.575 120.939C114.585 120.635 114.608 120.354 114.643 120.096C114.724 119.812 114.866 119.584 115.068 119.412C115.007 118.552 115.184 117.797 115.599 117.149C116.033 116.43 116.256 115.65 116.266 114.81C116.625 114.491 116.89 114.164 117.062 113.83C117.234 113.495 117.37 113.151 117.472 112.797C117.618 112.417 117.777 112.06 117.949 111.726C118.096 111.346 118.326 111.009 118.639 110.715L118.222 109.964C118.839 109.143 119.203 108.404 119.314 107.746C119.445 107.017 119.595 106.159 119.761 105.172C120.146 104.898 120.451 104.698 120.679 104.571C120.952 104.419 121.313 104.158 121.763 103.788C121.773 102.948 121.826 102.292 121.922 101.821C122.064 101.325 122.329 100.73 122.719 100.036C123.416 100.005 124.109 99.858 124.796 99.5942C125.529 99.3051 126.285 99.2715 127.064 99.4936C127.362 99.9236 127.701 100.212 128.08 100.358C128.434 100.459 128.811 100.548 129.21 100.623C129.584 100.653 129.948 100.719 130.302 100.82C130.701 100.895 131.06 101.113 131.379 101.472C131.586 101.416 131.687 101.33 131.682 101.213C131.723 101.072 131.847 100.973 132.054 100.917C132.544 101.478 132.944 101.822 133.252 101.949C133.535 102.029 133.932 102.315 134.443 102.806C134.468 103.388 134.551 103.967 134.693 104.544C134.855 105.05 134.771 105.544 134.443 106.025C134.574 106.369 134.766 106.501 135.019 106.419C135.247 106.293 135.446 106.33 135.618 106.533C135.891 106.917 135.987 107.251 135.907 107.535C137.985 108.702 140.012 110.047 141.989 111.569C143.94 113.046 145.955 114.368 148.033 115.535ZM143.104 126.777C143.008 126.174 143.008 125.638 143.104 125.167C143.246 124.671 143.162 124.091 142.854 123.428C142.424 123.191 142.136 122.994 141.989 122.837C141.817 122.635 141.605 122.306 141.352 121.85C139.568 120.996 137.869 119.975 136.256 118.787C134.618 117.553 132.952 116.484 131.258 115.579C131.268 115.812 131.21 116.083 131.084 116.392C130.958 116.701 130.682 116.795 130.257 116.674C130.369 117.089 130.361 117.451 130.235 117.759C130.083 118.023 129.871 118.231 129.598 118.383C129.299 118.489 128.966 118.586 128.597 118.672C128.248 118.687 127.909 118.667 127.581 118.612C126.843 120.394 126.092 122.154 125.329 123.891C124.565 125.628 124.027 127.448 123.714 129.352C123.582 129.544 123.494 129.653 123.448 129.678C123.377 129.658 123.254 129.757 123.077 129.975C123.193 131.043 123.18 132.093 123.039 133.126C122.918 134.088 122.809 135.072 122.713 136.08C122.617 137.087 122.614 138.102 122.706 139.124C122.797 140.147 123.123 141.217 123.684 142.335C124.811 142.542 125.936 142.422 127.059 141.976C128.181 141.529 129.263 140.957 130.304 140.257C131.391 139.532 132.407 138.787 133.353 138.022C134.318 137.186 135.256 136.515 136.166 136.008C137.824 134.488 139.133 132.983 140.094 131.494C141.029 129.96 142.033 128.387 143.104 126.777ZM186.771 96.6375C186.852 96.8906 186.92 97.1208 186.976 97.3283C187.006 97.4903 187.036 97.6522 187.067 97.8142C187.097 97.9761 187.175 98.171 187.302 98.3986C187.403 98.5808 187.542 98.8312 187.719 99.15C187.694 102.324 187.09 105.313 185.907 108.119C184.77 110.899 183.304 113.623 181.509 116.292C179.735 118.891 177.796 121.461 175.693 124.004C173.565 126.501 171.555 129.052 169.665 131.655C168.421 131.99 167.326 132.004 166.381 131.696C165.481 131.362 164.644 130.874 163.871 130.232C163.117 129.519 162.394 128.7 161.702 127.774C161.029 126.777 160.344 125.758 159.646 124.716C159.505 124.139 159.459 123.628 159.51 123.182C159.581 122.666 159.439 122.089 159.085 121.451C158.792 120.065 158.511 118.701 158.243 117.359C157.975 116.018 157.558 114.73 156.992 113.496C156.926 113.055 157.037 112.665 157.325 112.326C156.339 110.014 155.113 107.805 153.647 105.7C152.201 103.525 150.661 101.61 149.028 99.9565C148.821 99.4758 148.689 99.1317 148.634 98.9242C148.598 98.6458 148.51 98.4864 148.368 98.4461C148.121 98.1071 148.133 97.8616 148.406 97.7095C148.725 97.5321 149.043 97.3547 149.362 97.1772C148.983 96.4942 148.467 95.8872 147.815 95.3562C147.208 94.7999 146.551 94.1525 145.843 93.4141C145.782 92.5536 145.62 91.7793 145.357 91.091C145.069 90.3573 144.945 89.6513 144.986 88.9729C147.872 88.3783 150.734 88.0064 153.57 87.8573C156.452 87.6828 159.124 87.2376 161.586 86.5219C163.881 86.7933 166.222 87.0394 168.608 87.2602C170.969 87.4354 173.247 87.8359 175.441 88.4618C177.61 89.0421 179.665 89.9541 181.606 91.1977C183.548 92.4413 185.269 94.2546 186.771 96.6375ZM172.682 109.405C173.435 108.509 174.153 107.602 174.835 106.685C175.563 105.743 176.175 104.806 176.67 103.874C177.186 102.872 177.572 101.851 177.83 100.813C178.088 99.7755 178.156 98.6644 178.035 97.48C177.458 97.0856 176.829 96.8103 176.146 96.6539C175.439 96.452 174.756 96.2957 174.099 96.1849C173.416 96.0285 172.734 95.8721 172.051 95.7158C171.414 95.5341 170.795 95.2233 170.193 94.7834C169.551 95.0218 168.94 95.154 168.358 95.1798C167.751 95.16 167.157 95.163 166.576 95.1888C166.015 95.1437 165.421 95.1468 164.794 95.1979C164.213 95.2237 163.591 95.3912 162.928 95.7006C161.649 95.7573 160.537 95.9 159.592 96.1285C158.692 96.3318 157.936 96.3653 157.324 96.2291C157.006 96.4065 156.793 96.6143 156.687 96.8523C158.103 98.3292 159.354 99.7784 160.441 101.2C161.503 102.576 162.464 104.038 163.323 105.586C164.203 107.064 164.994 108.65 165.697 110.345C166.4 112.04 167.11 113.91 167.828 115.954C168.258 115.655 168.617 115.336 168.905 114.997C169.214 114.586 169.499 114.189 169.762 113.804C170.07 113.394 170.392 113.006 170.725 112.641C171.079 112.206 171.539 111.8 172.105 111.425C172.09 111.076 172.146 110.747 172.272 110.438C172.444 110.104 172.58 109.76 172.682 109.405ZM209.706 101.746C210.692 102.986 211.195 104.107 211.215 105.109C211.281 106.086 211.051 106.959 210.525 107.729C210.071 108.519 209.401 109.19 208.516 109.743C207.631 110.295 206.742 110.731 205.847 111.051C205.038 110.667 204.186 110.098 203.291 109.345C202.396 108.591 201.511 107.802 200.637 106.978C199.737 106.108 198.872 105.248 198.043 104.398C197.259 103.523 196.562 102.749 195.95 102.077C195.874 101.404 195.669 100.713 195.335 100.004C195.022 99.2251 194.663 98.4712 194.258 97.7426C193.899 96.9887 193.518 96.2474 193.113 95.5189C192.729 94.7194 192.393 93.9528 192.104 93.2191C191.361 91.1291 190.805 89.0542 190.436 86.9943C190.112 84.909 189.614 82.8315 188.942 80.7617C188.805 80.3012 188.545 79.9395 188.16 79.6766C187.822 79.3884 187.609 79.0595 187.523 78.6901C187.468 78.4826 187.541 78.2927 187.743 78.1204C187.92 77.9026 187.968 77.6672 187.887 77.4142C187.746 76.8372 187.541 76.4147 187.273 76.1467C187.05 75.8532 186.927 75.4155 186.901 74.8334C186.927 74.3424 186.909 73.6666 186.848 72.8061C186.808 71.8748 186.527 71.0474 186.006 70.324C186.264 69.8226 186.474 69.2884 186.635 68.7213C186.797 68.1543 186.984 67.6327 187.197 67.1567C187.429 66.6099 187.71 66.0958 188.038 65.6147C188.412 65.1082 188.941 64.6648 189.623 64.2846C190.24 64.5372 190.746 64.9114 191.14 65.4071C191.58 65.8775 191.997 66.3606 192.391 66.8563C192.831 67.3267 193.304 67.749 193.809 68.1232C194.29 68.4518 194.879 68.6006 195.576 68.5697C195.779 68.934 196.031 69.3893 196.335 69.9358C196.638 70.4822 196.964 71.016 197.313 71.537C197.637 72.0126 197.993 72.44 198.382 72.8194C198.792 73.1278 199.217 73.2489 199.657 73.1828C200.051 75.8248 200.478 78.4186 200.939 80.9644C201.444 83.4848 202.076 85.9647 202.835 88.4039C203.568 90.7976 204.473 93.1253 205.55 95.3871C206.673 97.6235 208.058 99.7433 209.706 101.746ZM236.801 42.563C237.024 42.8564 237.163 43.1069 237.218 43.3143C237.294 43.451 237.347 43.6002 237.378 43.7622C237.454 43.8988 237.542 44.0582 237.643 44.2403C237.719 44.3769 237.891 44.5793 238.159 44.8473C238.063 46.9279 237.542 48.619 236.597 49.9207C235.672 51.1515 234.557 52.3091 233.253 53.3934C231.923 54.4322 230.561 55.5191 229.166 56.6541C227.816 57.7638 226.643 59.1922 225.647 60.9394C224.929 61.0413 224.383 61.3454 224.009 61.8519C223.68 62.3331 223.036 62.7816 222.075 63.1975C221.954 63.6228 221.727 64.0178 221.393 64.3825C221.034 64.7017 220.688 65.0437 220.354 65.4084C220.764 65.7169 221.072 66.1114 221.279 66.5921C221.507 67.002 221.765 67.3055 222.053 67.5027C223.721 66.7521 225.46 65.7535 227.27 64.5067C229.125 63.2347 230.973 62.0562 232.813 60.9715C232.985 61.1738 233.051 61.3458 233.011 61.4876C232.945 61.5838 232.985 61.7104 233.132 61.8672C233.577 61.9174 234.06 62.036 234.58 62.2228C235.076 62.3641 235.571 62.5055 236.067 62.6468C236.562 62.7881 237.032 62.8839 237.477 62.9341C237.942 62.9135 238.39 62.7537 238.82 62.4547C239.204 62.7176 239.545 63.064 239.843 63.4941C240.162 63.8532 240.357 64.3111 240.427 64.8679C239.977 65.7744 239.54 66.7036 239.116 67.6556C238.666 68.562 238.145 69.4483 237.554 70.3144C237.008 71.1551 236.355 71.9656 235.597 72.7457C234.859 73.455 233.931 74.091 232.814 74.6538C232.587 74.7806 232.405 74.882 232.268 74.958C232.177 75.0087 232.003 75.0164 231.745 74.9812C231.507 75.4117 231.022 75.7715 230.289 76.0606C229.601 76.3244 229.139 76.6715 228.901 77.102C228.274 77.1531 227.609 77.4042 226.907 77.8553C226.224 78.2355 225.559 78.4867 224.912 78.6087C224.715 79.9705 224.624 81.3626 224.64 82.785C224.655 84.2074 224.776 85.6601 225.004 87.143C226.677 86.5089 228.002 85.8902 228.977 85.2871C229.999 84.6585 230.939 84.0453 231.798 83.4472C232.633 82.8037 233.502 82.1702 234.407 81.5469C235.287 80.878 236.467 80.1607 237.948 79.3951C238.58 78.3873 239.473 77.4729 240.625 76.6519C241.798 75.76 242.807 74.8404 243.651 73.8932C244.091 73.827 244.548 73.9 245.023 74.1122C245.473 74.2789 245.901 74.4582 246.305 74.6503C246.73 74.7714 247.142 74.8698 247.541 74.9454C247.941 75.021 248.332 74.9219 248.717 74.6483C249 74.729 249.24 74.8933 249.437 75.1412C249.654 75.3182 249.849 75.5078 250.021 75.7102C250.193 75.9125 250.375 76.0794 250.567 76.2109C250.779 76.2714 251.009 76.2029 251.257 76.0053C251.409 77.8882 251.257 79.4929 250.802 80.8196C250.368 82.0753 249.695 83.2249 248.785 84.2684C247.875 85.3119 246.778 86.3404 245.494 87.3538C244.256 88.3419 242.883 89.4643 241.377 90.7209C241.018 91.0401 240.664 91.2074 240.315 91.2229C239.991 91.2839 239.648 91.4158 239.284 91.6186C238.364 92.4293 237.226 93.3312 235.871 94.3245C234.516 95.3177 233.076 96.2098 231.549 97.0007C230.022 97.7917 228.475 98.3852 226.908 98.7813C225.366 99.223 223.923 99.252 222.578 98.8684C222.037 98.7525 221.584 98.5276 221.22 98.1938C220.877 97.7891 220.391 97.6124 219.764 97.6635C219.39 97.0969 218.933 96.4873 218.392 95.8347C217.851 95.1822 217.297 94.5069 216.731 93.8088C216.139 93.0652 215.583 92.3317 215.062 91.6083C214.587 90.8595 214.241 90.1283 214.023 89.4148C213.78 88.6557 213.712 87.8889 213.818 87.1143C213.97 86.3144 213.8 85.6337 213.31 85.0722C213.512 84.9 213.586 84.7101 213.53 84.5026C213.449 84.2496 213.58 84.0571 213.924 83.9252C213.742 82.9535 213.608 82.0146 213.522 81.1086C213.436 80.2026 213.363 79.3193 213.302 78.4588C213.287 77.573 213.249 76.6999 213.188 75.8394C213.148 74.908 213.047 73.921 212.885 72.8784C211.919 72.6413 211.087 72.2699 210.39 71.7643C209.712 71.1878 209.116 70.5961 208.6 69.9891C208.059 69.3365 207.541 68.6713 207.045 67.9934C206.524 67.27 205.935 66.5846 205.278 65.9372C205.354 65.0007 205.597 64.1501 206.006 63.3854C206.436 62.5498 206.961 61.78 207.583 61.0759C208.205 60.3717 208.92 59.6751 209.729 58.986C210.538 58.297 211.38 57.5597 212.254 56.7744C213.746 55.1686 215.108 53.8134 216.342 52.7088C217.621 51.579 218.892 50.5428 220.156 49.6002C221.44 48.5867 222.782 47.5707 224.183 46.5521C225.583 45.5335 227.138 44.3098 228.846 42.8809C229.483 43.0626 229.984 43.0521 230.348 42.8493C230.302 42.3381 230.444 42.1102 230.772 42.1656C231.121 42.1501 231.159 41.9501 230.886 41.5656C231.771 42.0863 232.706 42.4297 233.692 42.5959C234.698 42.6913 235.735 42.6803 236.801 42.563Z" fill="#ECE6DC"/>
<path d="M17.967 272.441C17.9114 272.234 17.9645 272.115 18.1263 272.084C18.3083 271.983 18.4549 271.872 18.5661 271.75C17.9998 271.589 17.5069 271.237 17.0872 270.696C16.6423 270.109 16.1241 269.712 15.5326 269.505C15.4972 269.227 15.439 268.961 15.3581 268.708C15.3227 268.43 15.4769 268.224 15.8207 268.093C15.128 267.167 14.6325 266.221 14.3342 265.254C14.0358 264.287 13.8538 263.316 13.788 262.339C13.7677 261.337 13.8056 260.332 13.9016 259.324C14.0178 258.246 14.1113 257.18 14.182 256.127C14.5409 255.808 14.8165 255.714 15.0086 255.846C15.1754 255.932 15.3094 255.798 15.4105 255.443C15.8604 254.537 16.0575 253.711 16.0018 252.967C15.9209 252.178 15.6782 251.419 15.2737 250.69C15.0259 249.278 14.8362 247.863 14.7047 246.446C14.5934 244.958 14.6009 243.523 14.7272 242.141C14.8536 240.759 15.1012 239.488 15.4702 238.329C15.8139 237.124 16.327 236.063 17.0095 235.146C17.3431 234.245 17.8613 233.3 18.5639 232.313C19.3121 231.3 20.169 230.375 21.1346 229.539C22.1204 228.632 23.2048 227.849 24.3877 227.19C25.5454 226.486 26.7006 225.991 27.8533 225.707C28.1314 225.671 28.2426 225.549 28.1869 225.342C28.106 225.089 28.1566 224.912 28.3386 224.81C30.7652 223.816 33.0428 223.144 35.1712 222.793C37.3451 222.416 39.385 222.442 41.291 222.871C42.9139 223.755 44.5545 224.779 46.2128 225.942C47.8459 227.059 49.3475 228.369 50.7176 229.871C52.108 231.303 53.2861 232.942 54.2518 234.789C55.2175 236.635 55.842 238.672 56.1252 240.899C55.6451 243.79 54.6088 246.484 53.0165 248.981C51.3988 251.432 49.498 253.803 47.3141 256.092C45.1504 258.311 42.7971 260.457 40.2542 262.529C37.7569 264.577 35.353 266.631 33.0427 268.693C33.7708 269.897 34.5039 271.218 35.2421 272.655C35.9551 274.046 36.5669 275.524 37.0776 277.088C37.6085 278.58 37.9903 280.127 38.2229 281.726C38.5011 283.3 38.5467 284.884 38.3597 286.479C37.4244 286.94 36.5195 287.564 35.6449 288.349C34.8158 289.109 34.0777 289.818 33.4307 290.477C32.9403 290.452 32.4499 290.427 31.9595 290.402C31.5399 290.398 31.0672 290.512 30.5414 290.745C30.3745 290.123 29.922 289.629 29.1839 289.266C28.4912 288.876 27.7885 288.523 27.0756 288.204C26.383 287.815 25.8167 287.385 25.3768 286.915C24.9572 286.374 24.9395 285.698 25.3236 284.888C24.7827 284.772 24.3226 284.372 23.9434 283.689C24.2265 283.77 24.5046 283.734 24.7776 283.582C24.2315 282.813 23.779 281.783 23.42 280.493C23.1064 279.177 22.7373 277.922 22.3126 276.728C21.9081 275.463 21.3847 274.413 20.7426 273.578C20.0752 272.698 19.15 272.319 17.967 272.441ZM26.8383 246.573C26.9343 247.175 27.0279 247.719 27.1189 248.205C27.2302 248.62 27.306 249.025 27.3465 249.42C27.387 249.814 27.4047 250.222 27.3996 250.642C27.4401 251.037 27.4831 251.49 27.5286 252.001C27.7713 252.224 28.0671 252.327 28.4159 252.312C28.7648 252.296 29.0605 252.4 29.3032 252.622C29.7632 251.949 30.2738 251.366 30.835 250.875C31.3708 250.338 31.932 249.846 32.5184 249.4C33.1048 248.954 33.6786 248.486 34.2398 247.994C34.8009 247.503 35.3343 246.907 35.8398 246.208C36.3453 245.509 36.9115 244.866 37.5384 244.278C38.1855 243.62 38.8098 242.974 39.4114 242.341C40.013 241.707 40.5792 241.064 41.11 240.411C41.6155 239.712 41.9795 238.972 42.2019 238.193C41.2362 237.956 39.99 237.964 38.4632 238.219C36.9364 238.473 35.397 238.973 33.845 239.718C32.3132 240.393 30.885 241.308 29.5605 242.463C28.2815 243.593 27.3741 244.963 26.8383 246.573ZM101.636 243.537C101.793 244.463 101.826 245.488 101.735 246.612C101.664 247.665 101.442 248.713 101.068 249.756C100.714 250.728 100.219 251.66 99.5817 252.552C98.9447 253.443 98.1612 254.178 97.2309 254.755C96.5636 254.948 96.0656 255.017 95.737 254.962C95.4792 254.926 95.1986 254.904 94.8953 254.894C94.7082 254.879 94.5338 254.887 94.372 254.917C94.2304 254.877 94.1015 254.859 93.9852 254.864L92.9766 254.979L92.7567 253.939C92.6454 253.524 92.471 253.264 92.2334 253.158C91.9705 253.006 91.5331 252.862 90.9214 252.726C90.7091 252.665 90.4967 252.605 90.2844 252.544C90.072 252.484 89.8825 252.41 89.7156 252.324L87.8349 251.673L89.4122 250.168C90.3727 249.216 90.8959 248.388 90.9818 247.684C91.1132 246.955 90.8048 246.024 90.0565 244.891C89.0454 245.215 88.2592 245.624 87.6981 246.115C87.1824 246.581 86.6567 247.083 86.1208 247.62C85.4282 248.304 84.7002 248.978 83.9369 249.641C83.1937 250.234 82.3217 250.809 81.3207 251.367C80.9567 251.57 80.6154 251.76 80.2969 251.937C79.9532 252.069 79.5866 252.214 79.1974 252.371L78.439 252.615C78.07 252.164 77.8273 251.942 77.711 251.947C77.5694 251.907 77.4279 251.866 77.2863 251.826C76.9324 251.725 76.5178 251.568 76.0426 251.356C75.5876 251.073 75.264 250.598 75.0718 249.93C74.6168 249.646 74.2528 249.313 73.9798 248.928C74.0101 249.627 74.1214 250.31 74.3136 250.978L74.4198 251.813L73.8131 252.33C73.7474 252.426 73.7424 252.578 73.798 252.786C73.8283 252.947 73.8688 253.074 73.9193 253.165L74.2227 254.516C74.1823 254.658 74.1419 254.8 74.1014 254.942C74.0357 255.038 73.9826 255.157 73.9422 255.299C74.0787 255.759 74.1925 256.232 74.2835 256.718C74.3746 257.204 74.4529 257.667 74.5187 258.108C74.6198 258.826 74.7438 259.532 74.8904 260.226C75.0573 260.848 75.3151 261.42 75.664 261.941L75.8081 262.844C75.7323 263.244 75.6085 263.611 75.4366 263.946C75.2395 264.234 75.0423 264.523 74.8452 264.812C74.8047 264.954 74.7188 265.121 74.5873 265.313C74.4761 265.435 74.3877 265.544 74.3219 265.64L74.5343 266.505L73.7912 267.098C73.3412 267.468 73.0152 267.739 72.813 267.911C72.6562 268.058 72.4414 268.208 72.1684 268.36L71.448 268.672C70.72 268.541 70.1562 268.437 69.7568 268.362C69.3322 268.241 68.8746 268.168 68.3842 268.143C67.6714 267.825 67.2163 267.541 67.0192 267.294C66.822 267.046 66.6374 266.821 66.4655 266.618C66.2229 266.396 66.051 266.193 65.9498 266.011C65.8032 265.854 65.6591 265.756 65.5176 265.715L64.1753 265.39L64.5847 264.357L64.0083 263.158C63.629 260.329 63.3457 257.565 63.1585 254.867C63.0168 252.144 62.8726 249.363 62.7258 246.523C62.6853 245.592 62.6221 244.673 62.5361 243.767C62.4956 242.836 62.4551 241.904 62.4146 240.973C62.2932 240.862 62.182 240.715 62.0809 240.533C61.9798 240.351 61.9115 240.12 61.8761 239.842C61.9468 238.789 61.9771 237.878 61.9669 237.108C61.9315 236.293 61.8961 235.479 61.8606 234.664C61.7949 233.687 61.7417 232.733 61.7012 231.801C61.7062 230.845 61.7896 229.814 61.9513 228.711L62.7779 227.624C62.8891 227.503 63.023 227.368 63.1798 227.221C63.3112 227.029 63.4907 226.869 63.7182 226.743L64.8177 226.309C65.7631 225.007 66.4227 223.567 66.7968 221.987C67.1455 220.362 67.4033 218.519 67.57 216.459L67.7216 215.122L68.9122 215.174C69.2155 215.184 69.6099 215.143 70.0952 215.052C70.5553 214.915 71.0507 214.788 71.5815 214.671C72.5016 214.397 73.3889 214.171 74.2433 213.993C75.0977 213.815 75.8788 213.827 76.5866 214.029C77.2641 214.606 77.7267 215.063 77.9744 215.402C78.2222 215.741 78.4927 216.068 78.7859 216.381C79.3522 217.079 79.8957 217.79 80.4165 218.513C80.9827 219.211 81.5541 220.026 82.1305 220.957C82.7877 221.604 83.3995 222.277 83.9658 222.975C84.5522 223.602 85.1286 224.265 85.6949 224.963C86.5291 225.929 87.3507 226.872 88.1597 227.793C88.9433 228.668 89.77 229.46 90.6396 230.168C91.0036 229.965 91.2437 229.861 91.36 229.856C91.5369 229.638 91.7265 229.443 91.9287 229.271C92.1764 229.073 92.4469 228.863 92.7401 228.64L93.4529 228.153L94.1051 228.684C94.277 228.886 94.6309 228.987 95.1668 228.987C95.7836 228.703 96.2917 228.599 96.6911 228.674C97.0652 228.704 97.4292 228.77 97.7831 228.871C98.0662 228.952 98.3241 228.987 98.5566 228.977L99.8079 228.816L99.8307 230.145C99.8308 231.218 99.6135 232.382 99.1787 233.638C98.7642 234.823 98.1728 235.957 97.4044 237.041C97.6016 237.289 97.776 237.55 97.9277 237.823C98.0996 238.025 98.3069 238.238 98.5496 238.46C99.1158 239.158 99.672 239.892 100.218 240.661C100.764 241.43 101.232 242.272 101.621 243.188L101.636 243.537ZM75.352 242.708C76.6665 241.857 77.8444 241.082 78.8858 240.382C79.9474 239.612 81.0849 238.71 82.2982 237.676C81.2213 236.488 80.0963 235.266 78.9234 234.012C77.7251 232.712 76.5167 231.447 75.2983 230.218L75.268 231.129C74.8889 232.593 74.5958 234.157 74.3886 235.823C74.2269 237.463 74.141 238.971 74.131 240.348C74.0855 240.91 74.04 241.472 73.9946 242.034C73.9491 242.596 73.9264 243.145 73.9264 243.682C74.1741 243.484 74.4117 243.322 74.6392 243.195C74.9122 243.043 75.1498 242.881 75.352 242.708ZM91.779 216.297C91.5666 215.163 91.6121 214.065 91.9153 213.002C92.2641 211.913 92.7216 210.913 93.2878 210.001C93.8742 209.019 94.5339 208.115 95.2669 207.289C95.9999 206.463 96.7127 205.709 97.4053 205.025C98.7955 203.237 100.325 201.431 101.993 199.607C103.681 197.713 105.443 195.896 107.278 194.159C109.159 192.396 111.199 190.812 113.398 189.408C115.572 187.959 118.112 186.901 121.019 186.235C121.408 186.615 121.853 186.933 122.354 187.191C122.854 187.449 123.355 187.707 123.855 187.964C124.401 188.197 124.902 188.454 125.357 188.738C125.787 188.975 126.138 189.286 126.411 189.671C127.094 189.827 127.711 190.08 128.262 190.428C128.787 190.732 129.174 191.321 129.422 192.197C129.169 192.814 128.904 193.409 128.626 193.982C128.368 194.483 128.052 194.987 127.678 195.493C125.767 196.021 123.985 196.835 122.332 197.935C120.679 199.035 119.195 200.01 117.88 200.862C117.243 200.68 116.629 200.754 116.038 201.084C115.492 201.388 114.951 201.808 114.415 202.345C113.924 202.857 113.411 203.381 112.876 203.918C112.385 204.43 111.842 204.793 111.245 205.006C110.992 205.623 110.563 206.191 109.956 206.707C109.37 207.153 108.715 207.637 107.992 208.159C108.073 208.412 108.207 208.546 108.394 208.561C108.556 208.531 108.654 208.655 108.69 208.933C109.14 209.1 109.607 209.137 110.093 209.046C110.623 208.929 111.154 208.812 111.685 208.695C112.261 208.553 112.795 208.495 113.285 208.519C113.75 208.499 114.178 208.678 114.567 209.057C115.249 208.677 115.929 208.507 116.607 208.547C117.284 208.587 117.909 208.746 118.48 209.024C119.051 209.302 119.557 209.676 119.997 210.146C120.457 210.546 120.801 210.951 121.028 211.36C121.367 211.649 121.615 211.719 121.771 211.572C121.928 211.425 122.183 211.402 122.537 211.503C123.002 212.019 123.685 212.444 124.585 212.777C125.459 213.065 126.258 213.485 126.981 214.036C127.704 215.123 128.341 216.11 128.892 216.995C129.418 217.835 129.752 218.812 129.894 219.925C130.147 221.99 130.025 224.025 129.53 226.03C129.08 228.01 128.372 229.954 127.407 231.863C126.462 233.702 125.327 235.467 124.002 237.159C122.678 238.85 121.336 240.403 119.976 241.816C119.768 241.872 119.586 241.974 119.43 242.12C119.273 242.267 119.164 242.179 119.104 241.855C118.917 242.376 118.621 242.81 118.216 243.154C117.857 243.473 117.415 243.75 116.889 243.983C116.389 244.262 115.853 244.53 115.282 244.789C114.756 245.022 114.291 245.311 113.886 245.656C113.391 245.514 112.918 245.36 112.468 245.194C112.089 245.047 111.705 244.784 111.316 244.405C111.088 244.532 110.911 244.481 110.785 244.254C110.704 244.001 110.572 243.925 110.39 244.026C110.411 243.419 110.385 243.105 110.314 243.085C110.264 242.994 110.158 242.963 109.996 242.994C109.88 242.999 109.763 243.004 109.647 243.009C109.506 242.969 109.42 242.868 109.389 242.706C109.369 242.24 109.21 241.792 108.911 241.362C108.588 240.887 108.264 240.411 107.941 239.936C107.617 239.46 107.374 238.969 107.213 238.463C107.096 237.932 107.235 237.377 107.63 236.8C109.278 236.12 110.708 235.264 111.922 234.23C113.155 233.126 114.234 231.958 115.16 230.727C116.085 229.496 116.916 228.258 117.654 227.012C118.438 225.741 119.237 224.551 120.051 223.441C119.959 222.956 119.952 222.513 120.028 222.113C120.149 221.687 120.283 221.285 120.43 220.905C120.576 220.525 120.687 220.135 120.763 219.736C120.839 219.336 120.809 218.905 120.672 218.445C120.541 218.101 120.348 217.969 120.096 218.05C119.863 218.061 119.671 217.929 119.519 217.656L118.655 217.869C117.512 217.85 116.307 217.985 115.038 218.275C113.743 218.519 112.596 218.651 111.595 218.673C111.246 219.225 110.806 219.559 110.275 219.676C109.79 219.767 109.168 219.935 108.41 220.179C106.812 220.949 105.222 221.626 103.64 222.21C102.103 222.768 100.51 223.118 98.8623 223.262C98.6449 223.085 98.4174 222.943 98.1798 222.837C97.9422 222.731 97.6667 222.825 97.3532 223.119C96.878 222.906 96.4154 222.717 95.9654 222.55C95.4902 222.338 95.0251 222.09 94.57 221.807C94.3577 221.21 94.1731 220.717 94.0164 220.327C93.8343 219.892 93.4829 219.581 92.9622 219.394C92.8156 218.701 92.6866 218.147 92.5754 217.732C92.4641 217.317 92.1987 216.838 91.779 216.297ZM123.988 198.354C123.775 197.22 123.821 196.122 124.124 195.059C124.473 193.97 124.93 192.97 125.496 192.058C126.083 191.076 126.743 190.172 127.476 189.346C128.209 188.52 128.921 187.765 129.614 187.082C131.004 185.293 132.533 183.488 134.202 181.664C135.89 179.769 137.652 177.953 139.487 176.215C141.368 174.452 143.407 172.869 145.607 171.465C147.78 170.015 150.321 168.958 153.228 168.292C153.617 168.672 154.062 168.99 154.563 169.248C155.063 169.506 155.564 169.763 156.064 170.021C156.61 170.254 157.111 170.511 157.566 170.794C157.995 171.032 158.347 171.343 158.62 171.727C159.302 171.884 159.919 172.136 160.47 172.485C160.996 172.788 161.383 173.378 161.631 174.253C161.378 174.871 161.112 175.466 160.834 176.038C160.577 176.54 160.261 177.044 159.887 177.55C157.976 178.078 156.193 178.892 154.54 179.992C152.887 181.092 151.403 182.067 150.089 182.919C149.452 182.737 148.838 182.811 148.246 183.141C147.7 183.445 147.159 183.865 146.623 184.402C146.133 184.914 145.62 185.438 145.084 185.975C144.594 186.487 144.05 186.849 143.454 187.062C143.201 187.68 142.771 188.248 142.165 188.764C141.578 189.21 140.924 189.694 140.201 190.216C140.282 190.469 140.415 190.603 140.603 190.618C140.764 190.588 140.863 190.712 140.898 190.99C141.348 191.157 141.816 191.194 142.301 191.103C142.832 190.986 143.363 190.869 143.894 190.752C144.47 190.61 145.003 190.551 145.494 190.576C145.959 190.556 146.386 190.735 146.776 191.114C147.458 190.734 148.138 190.564 148.815 190.604C149.493 190.644 150.117 190.803 150.689 191.081C151.26 191.359 151.765 191.733 152.205 192.203C152.665 192.603 153.009 193.007 153.237 193.417C153.575 193.705 153.823 193.776 153.98 193.629C154.137 193.482 154.392 193.459 154.746 193.56C155.211 194.076 155.894 194.501 156.793 194.834C157.668 195.122 158.467 195.541 159.19 196.093C159.913 197.18 160.55 198.167 161.101 199.052C161.627 199.892 161.961 200.869 162.102 201.982C162.355 204.047 162.234 206.082 161.739 208.087C161.289 210.067 160.581 212.011 159.616 213.92C158.67 215.759 157.535 217.524 156.211 219.215C154.886 220.907 153.544 222.46 152.184 223.873C151.977 223.929 151.795 224.03 151.638 224.177C151.482 224.324 151.373 224.236 151.312 223.912C151.125 224.433 150.829 224.866 150.425 225.211C150.066 225.53 149.624 225.806 149.098 226.04C148.597 226.318 148.062 226.587 147.49 226.846C146.965 227.079 146.499 227.368 146.095 227.713C145.6 227.571 145.127 227.417 144.677 227.251C144.298 227.104 143.913 226.841 143.524 226.462C143.297 226.589 143.12 226.538 142.993 226.31C142.912 226.057 142.781 225.982 142.599 226.083C142.619 225.476 142.594 225.162 142.523 225.142C142.472 225.05 142.366 225.02 142.205 225.051C142.088 225.056 141.972 225.061 141.856 225.066C141.714 225.026 141.628 224.925 141.598 224.763C141.578 224.297 141.418 223.849 141.12 223.419C140.796 222.944 140.473 222.468 140.149 221.992C139.826 221.517 139.583 221.026 139.421 220.52C139.305 219.989 139.444 219.434 139.838 218.857C141.486 218.177 142.917 217.321 144.13 216.287C145.364 215.182 146.443 214.015 147.368 212.784C148.293 211.553 149.125 210.315 149.863 209.069C150.646 207.798 151.445 206.608 152.259 205.498C152.168 205.012 152.16 204.569 152.236 204.17C152.358 203.744 152.492 203.342 152.638 202.962C152.785 202.582 152.896 202.192 152.972 201.792C153.048 201.392 153.017 200.962 152.881 200.502C152.749 200.158 152.557 200.026 152.304 200.107C152.072 200.118 151.88 199.986 151.728 199.713L150.863 199.926C149.721 199.907 148.515 200.042 147.246 200.332C145.952 200.576 144.804 200.708 143.803 200.729C143.455 201.281 143.015 201.616 142.484 201.733C141.999 201.824 141.377 201.992 140.618 202.235C139.021 203.006 137.431 203.683 135.848 204.267C134.312 204.825 132.719 205.175 131.071 205.318C130.854 205.141 130.626 205 130.388 204.894C130.151 204.788 129.875 204.882 129.562 205.175C129.087 204.963 128.624 204.774 128.174 204.607C127.699 204.395 127.234 204.147 126.779 203.864C126.566 203.267 126.382 202.774 126.225 202.384C126.043 201.949 125.692 201.638 125.171 201.451C125.024 200.758 124.895 200.203 124.784 199.788C124.673 199.373 124.407 198.895 123.988 198.354ZM173.705 155.454C175.742 154.617 177.664 154.053 179.468 153.763C181.273 153.473 182.952 153.492 184.504 153.82C185.864 154.553 187.229 155.402 188.599 156.368C190.015 157.308 191.286 158.418 192.414 159.698C193.561 160.907 194.53 162.275 195.318 163.803C196.153 165.306 196.681 167.009 196.904 168.912C196.494 171.286 195.625 173.529 194.295 175.641C192.986 177.682 191.416 179.63 189.586 181.484C187.756 183.338 185.785 185.152 183.671 186.926C181.604 188.674 179.582 190.396 177.605 192.094C178.232 193.116 178.851 194.231 179.463 195.441C180.095 196.579 180.626 197.804 181.056 199.114C181.506 200.354 181.829 201.635 182.027 202.956C182.224 204.277 182.234 205.582 182.057 206.873C181.284 207.304 180.538 207.839 179.82 208.477C179.128 209.161 178.501 209.749 177.94 210.24C177.52 210.236 177.123 210.218 176.749 210.188C176.446 210.178 176.054 210.277 175.574 210.485C175.412 209.979 175.045 209.587 174.474 209.309C173.877 208.986 173.281 208.662 172.684 208.339C172.088 208.016 171.595 207.664 171.205 207.285C170.862 206.88 170.849 206.321 171.167 205.607C170.672 205.466 170.285 205.144 170.007 204.644C170.022 203.92 169.878 203.016 169.575 201.933C169.317 200.825 169.003 199.777 168.634 198.791C168.285 197.733 167.85 196.842 167.33 196.119C166.809 195.395 166.038 195.08 165.017 195.172C165.012 195.055 165.077 194.959 165.214 194.883C165.35 194.807 165.474 194.708 165.585 194.587C165.07 194.516 164.627 194.256 164.258 193.806C163.935 193.33 163.535 192.986 163.06 192.774C163.025 192.496 162.979 192.253 162.923 192.045C162.868 191.838 162.989 191.681 163.287 191.574C162.696 190.831 162.266 190.056 161.998 189.252C161.776 188.422 161.647 187.599 161.611 186.784C161.55 185.924 161.571 185.048 161.672 184.157C161.773 183.266 161.851 182.388 161.907 181.522C162.2 181.299 162.407 181.243 162.528 181.355C162.695 181.441 162.842 181.329 162.968 181.02C163.307 180.235 163.451 179.529 163.4 178.902C163.35 178.274 163.148 177.641 162.794 177.004C162.581 175.87 162.437 174.698 162.361 173.489C162.26 172.233 162.255 171.044 162.346 169.92C162.437 168.796 162.624 167.738 162.907 166.746C163.235 165.728 163.675 164.857 164.226 164.133C164.519 163.373 164.974 162.583 165.591 161.763C166.183 160.896 166.905 160.106 167.76 159.392C168.589 158.632 169.481 157.986 170.437 157.453C171.412 156.85 172.373 156.434 173.318 156.206C173.596 156.17 173.685 156.061 173.584 155.879C173.528 155.672 173.569 155.53 173.705 155.454ZM179.97 173.337C180.829 172.203 181.82 171.144 182.943 170.161C184.085 169.107 184.861 167.93 185.27 166.628C184.446 166.432 183.41 166.443 182.161 166.661C180.887 166.835 179.611 167.218 178.332 167.811C177.053 168.404 175.865 169.215 174.768 170.244C173.691 171.201 172.925 172.343 172.47 173.67C172.652 174.642 172.791 175.429 172.887 176.031C172.958 176.588 173.024 177.296 173.084 178.157C173.302 178.334 173.539 178.44 173.797 178.475C174.075 178.44 174.323 178.51 174.541 178.687C175.284 177.558 176.166 176.679 177.187 176.05C178.228 175.351 179.156 174.447 179.97 173.337ZM236.339 149.178C236.597 149.75 236.933 150.249 237.348 150.673C237.762 151.098 238.2 151.51 238.66 151.91C239.14 152.239 239.61 152.603 240.07 153.002C240.53 153.402 240.945 153.827 241.314 154.277C241.759 154.864 242.151 155.569 242.49 156.394C242.803 157.173 243.048 157.991 243.225 158.846C243.377 159.656 243.435 160.458 243.4 161.253C243.339 162.002 243.135 162.653 242.786 163.205C242.604 164.379 242.184 165.448 241.527 166.41C240.87 167.372 240.332 168.388 239.912 169.456C239.588 170.054 239.146 170.598 238.585 171.09C238.069 171.556 237.531 172.035 236.97 172.526C236.621 173.078 236.194 173.704 235.688 174.403C235.157 175.056 234.604 175.722 234.028 176.401C233.426 177.034 232.799 177.622 232.147 178.164C231.47 178.661 230.845 179.038 230.274 179.297C229.187 180.558 228.022 181.625 226.778 182.496C225.605 183.388 224.053 184.134 222.122 184.732C220.611 185.873 219.048 186.654 217.436 187.075C215.868 187.471 214.324 187.586 212.802 187.421C211.301 187.184 209.837 186.747 208.411 186.111C207.006 185.403 205.711 184.574 204.528 183.623C202.723 181.231 201.512 178.835 200.896 176.436C200.253 173.991 199.94 171.603 199.955 169.269C199.99 166.865 200.25 164.543 200.736 162.306C201.195 160.022 201.635 157.81 202.055 155.668C202.378 155.607 202.583 155.493 202.669 155.326C202.775 155.088 202.846 154.84 202.881 154.582C202.891 154.278 202.914 153.997 202.949 153.739C203.03 153.455 203.172 153.228 203.374 153.055C203.313 152.195 203.49 151.44 203.905 150.792C204.34 150.073 204.562 149.293 204.572 148.453C204.931 148.134 205.196 147.807 205.368 147.473C205.54 147.139 205.677 146.794 205.778 146.44C205.924 146.06 206.083 145.703 206.255 145.369C206.402 144.989 206.632 144.652 206.945 144.359L206.528 143.607C207.145 142.787 207.509 142.047 207.62 141.389C207.752 140.66 207.901 139.802 208.067 138.815C208.452 138.541 208.758 138.341 208.985 138.214C209.258 138.062 209.619 137.801 210.069 137.431C210.079 136.591 210.133 135.935 210.229 135.465C210.37 134.968 210.635 134.373 211.025 133.68C211.722 133.649 212.415 133.501 213.103 133.237C213.836 132.948 214.591 132.915 215.37 133.137C215.668 133.567 216.007 133.855 216.386 134.002C216.74 134.103 217.117 134.191 217.516 134.266C217.89 134.296 218.254 134.362 218.608 134.463C219.008 134.539 219.367 134.756 219.685 135.115C219.892 135.059 219.993 134.973 219.988 134.857C220.029 134.715 220.153 134.616 220.36 134.56C220.85 135.122 221.25 135.466 221.558 135.592C221.841 135.673 222.238 135.958 222.749 136.449C222.774 137.031 222.858 137.61 222.999 138.187C223.161 138.693 223.078 139.187 222.749 139.668C222.881 140.012 223.073 140.144 223.325 140.063C223.553 139.936 223.753 139.974 223.925 140.176C224.198 140.56 224.294 140.894 224.213 141.178C226.291 142.346 228.318 143.69 230.295 145.212C232.246 146.689 234.261 148.011 236.339 149.178ZM231.41 160.42C231.314 159.818 231.314 159.281 231.41 158.81C231.552 158.314 231.468 157.735 231.16 157.072C230.73 156.834 230.442 156.637 230.295 156.48C230.124 156.278 229.911 155.949 229.658 155.494C227.874 154.64 226.175 153.619 224.562 152.43C222.924 151.197 221.258 150.127 219.565 149.223C219.575 149.456 219.517 149.726 219.39 150.035C219.264 150.344 218.988 150.438 218.564 150.317C218.675 150.732 218.667 151.094 218.541 151.403C218.389 151.666 218.177 151.874 217.904 152.026C217.606 152.132 217.272 152.229 216.903 152.315C216.554 152.331 216.215 152.311 215.887 152.255C215.149 154.038 214.398 155.797 213.635 157.534C212.871 159.271 212.333 161.091 212.02 162.995C211.888 163.187 211.8 163.296 211.754 163.322C211.684 163.301 211.56 163.4 211.383 163.618C211.499 164.686 211.487 165.736 211.345 166.769C211.224 167.731 211.115 168.716 211.019 169.723C210.923 170.73 210.921 171.745 211.012 172.768C211.103 173.79 211.429 174.86 211.99 175.979C213.118 176.185 214.242 176.065 215.365 175.619C216.487 175.173 217.569 174.6 218.61 173.9C219.697 173.176 220.713 172.431 221.659 171.666C222.624 170.83 223.562 170.158 224.472 169.651C226.13 168.131 227.44 166.627 228.4 165.138C229.335 163.603 230.339 162.031 231.41 160.42ZM258.713 154.242C259.224 156.343 259.54 157.985 259.661 159.169C259.803 160.283 259.765 161.556 259.548 162.989C258.906 163.227 258.534 163.523 258.433 163.878C258.332 164.232 258.196 164.577 258.024 164.911C257.665 165.23 257.369 165.395 257.136 165.405C256.904 165.415 256.681 165.39 256.469 165.33C256.282 165.315 256.037 165.302 255.734 165.292C255.501 165.303 255.18 165.422 254.77 165.65C254.477 165.336 254.174 165.058 253.86 164.816C253.592 164.548 253.233 164.598 252.784 164.968C252.672 164.553 252.531 164.245 252.359 164.042C252.162 163.794 251.967 163.605 251.775 163.473C251.603 163.271 251.444 163.091 251.297 162.935C251.125 162.732 250.996 162.446 250.91 162.077C250.683 162.204 250.412 162.146 250.099 161.903C249.785 161.66 249.449 161.43 249.09 161.213C248.772 160.317 248.478 159.467 248.21 158.662C247.942 157.858 247.722 157.086 247.55 156.347C247.424 155.583 247.252 154.844 247.035 154.13C246.817 153.417 246.382 152.795 245.73 152.264C245.988 152.299 246.112 152.2 246.102 151.967C246.066 151.689 245.983 151.378 245.852 151.034C245.695 150.644 245.528 150.29 245.351 149.971C245.149 149.607 244.962 149.323 244.79 149.121C244.587 147.684 244.281 146.274 243.872 144.893C243.483 143.44 243.06 142.036 242.605 140.68C242.196 139.298 241.799 137.939 241.414 136.603C241.03 135.267 240.787 133.971 240.686 132.716C241.136 132.346 241.72 132.11 242.438 132.009C243.176 131.836 243.702 131.871 244.015 132.114C244.693 130.544 245.132 128.868 245.335 127.086C245.511 125.259 245.736 123.464 246.009 121.702C246.282 119.94 246.722 118.264 247.328 116.675C247.98 115.059 249.143 113.666 250.817 112.496C252.106 112.672 253.499 112.82 254.995 112.94C256.512 112.989 257.95 113.381 259.31 114.113C259.775 114.093 260.185 114.133 260.539 114.234C260.913 114.264 261.345 114.291 261.835 114.316L262.29 115.136C263.115 115.333 263.875 115.684 264.573 116.189C265.291 116.624 266.001 117.153 266.704 117.775C267.382 118.351 268.072 118.95 268.775 119.572C269.452 120.149 270.162 120.677 270.906 121.158C270.941 121.436 271.009 121.666 271.11 121.848C271.186 121.985 271.297 122.132 271.444 122.288C271.636 122.42 271.806 122.564 271.952 122.721C272.099 122.878 272.238 123.128 272.369 123.472C273.345 125.552 273.583 127.536 273.082 129.424C272.628 131.288 271.809 133.085 270.626 134.817C269.418 136.504 268.032 138.14 266.47 139.726C264.908 141.312 263.553 142.841 262.406 144.315C262.507 144.497 262.626 144.551 262.762 144.474C262.944 144.373 263.076 144.449 263.157 144.702C264.628 144.777 265.796 144.841 266.66 144.896C267.525 144.951 268.306 144.963 269.003 144.932C269.747 144.876 270.5 144.784 271.263 144.657C272.047 144.459 273.106 144.167 274.441 143.781C275.775 143.396 276.812 143.116 277.55 142.944C278.308 142.7 278.998 142.494 279.62 142.327C280.217 142.114 280.813 141.901 281.41 141.688C282.027 141.404 282.883 141.016 283.981 140.524C284.618 140.705 285.237 141.016 285.839 141.456C286.46 141.825 286.981 142.28 287.401 142.822C287.795 143.317 288.121 143.851 288.379 144.423C288.612 144.949 288.68 145.448 288.584 145.919C288.705 146.03 288.834 146.047 288.971 145.971C289.127 145.824 289.309 145.723 289.517 145.667C289.345 146.001 289.244 146.356 289.213 146.73C289.183 147.105 289.153 147.48 289.123 147.854C289.092 148.229 289.014 148.571 288.887 148.879C288.786 149.234 288.544 149.548 288.16 149.822C287.052 151.154 285.291 152.165 282.874 152.856C280.483 153.592 277.295 154.234 273.311 154.784C271.319 155.059 269.674 155.261 268.375 155.388C267.096 155.445 265.943 155.461 264.917 155.437C263.91 155.341 262.937 155.198 261.997 155.006C261.102 154.79 260.007 154.535 258.713 154.242ZM255.466 125.377C255.37 126.384 255.168 127.361 254.859 128.308C254.597 129.23 254.346 130.174 254.109 131.141C253.891 132.037 253.77 132.999 253.745 134.027C253.694 135.009 253.856 136.051 254.23 137.154C255.722 136.085 257.142 134.727 258.492 133.081C259.817 131.389 261.075 129.794 262.268 128.294C261.303 126.984 260.17 126.125 258.871 125.716C257.617 125.281 256.482 125.168 255.466 125.377ZM307.747 93.2107C306.61 93.8444 305.432 94.6199 304.213 95.5371C302.97 96.4088 301.762 97.2906 300.589 98.1824C299.755 98.826 298.93 99.4341 298.117 100.007C297.348 100.554 296.635 101.041 295.978 101.466C296.216 102.646 296.39 103.711 296.502 104.663C296.613 105.614 296.689 106.556 296.729 107.487C296.795 108.464 296.896 109.451 297.033 110.448C297.189 111.374 297.384 112.369 297.617 113.431C297.566 114.413 297.559 115.312 297.594 116.127C297.65 116.871 297.802 117.681 298.049 118.556C297.883 119.543 297.878 120.5 298.034 121.426C298.166 122.307 298.315 123.059 298.482 123.681L298.664 124.653C298.543 125.078 298.51 125.395 298.565 125.602C298.596 125.764 298.558 125.964 298.452 126.202C298.684 126.728 298.803 127.318 298.808 127.971C298.844 128.249 298.902 128.515 298.983 128.768C299.038 128.975 299.091 129.125 299.142 129.216C299.395 129.671 299.445 130.03 299.294 130.294C299.466 130.496 299.605 130.747 299.711 131.045C299.792 131.298 299.873 131.551 299.953 131.804C300.12 132.427 300.315 132.885 300.537 133.178C300.775 133.284 300.977 133.38 301.144 133.466C301.357 133.527 301.549 133.658 301.721 133.86C302.095 133.891 302.363 133.89 302.524 133.86C302.782 133.895 303.144 133.902 303.609 133.882L304.602 134.223C305.563 135.416 305.94 136.578 305.732 137.707C305.53 138.952 304.61 140.031 302.972 140.944L302.153 141.4C301.799 141.299 301.562 141.193 301.44 141.082C301 141.148 300.642 141.199 300.363 141.234C300.085 141.27 299.78 141.202 299.446 141.03C298.703 141.086 298.099 141.125 297.633 141.145L296.83 141.146C296.552 140.645 296.4 140.372 296.375 140.326C295.829 140.094 295.325 139.778 294.865 139.379C294.451 138.954 294.059 138.516 293.69 138.066C293.371 137.707 293.043 137.383 292.704 137.095C292.411 136.781 292.097 136.539 291.764 136.367C290.206 133.776 289.218 131.406 288.798 129.255C288.378 127.104 288.019 125.008 287.721 122.969C287.579 121.855 287.438 120.742 287.296 119.628C287.129 118.469 286.904 117.313 286.621 116.159L286.856 115.134C286.77 114.228 286.692 113.496 286.621 112.939C286.57 112.312 286.52 111.684 286.469 111.056C286.428 110.662 286.378 110.302 286.317 109.978C286.277 109.584 286.239 109.247 286.203 108.969C285.93 109.121 285.693 109.283 285.491 109.455C285.263 109.582 285.048 109.731 284.846 109.904C284.598 110.101 284.373 110.286 284.171 110.459C283.944 110.585 283.716 110.712 283.489 110.839C283.17 111.016 282.93 111.12 282.768 111.151C282.394 111.657 281.911 112.075 281.32 112.405L280.637 112.785C280.501 112.861 280.364 112.937 280.228 113.013C280.112 113.018 280.008 113.046 279.917 113.097C279.462 113.35 279.136 113.621 278.939 113.91C278.393 114.214 277.87 114.506 277.369 114.785L276.687 115.165C276.596 115.215 276.494 115.302 276.383 115.423C276.247 115.499 276.133 115.563 276.042 115.613C275.723 115.791 275.37 115.958 274.98 116.115C274.566 116.227 274.091 116.283 273.555 116.283C272.604 115.859 272.025 115.675 271.818 115.731L270.749 115.253C270.552 115.005 270.344 114.793 270.127 114.616C269.884 114.393 269.629 114.148 269.361 113.88C268.926 113.526 268.479 113.149 268.019 112.75C267.579 112.279 267.156 111.68 266.752 110.951C266.595 110.562 266.535 110.238 266.57 109.98C266.605 109.721 266.631 109.499 266.646 109.311L266.282 108.173L267.207 107.747L269.118 106.682C270.574 105.871 272.027 105.002 273.478 104.074C274.904 103.101 276.375 102.103 277.892 101.079C278.751 100.481 279.61 99.8829 280.47 99.2849C281.375 98.6615 282.302 98.0255 283.253 97.3767C283.207 96.8655 283.174 96.3771 283.154 95.9114L283.647 95.1897C284.441 94.6879 285.073 94.4849 285.543 94.5807C286.033 94.6056 286.455 94.6685 286.809 94.7694C287.76 94.1207 288.71 93.472 289.661 92.8233C290.631 92.1037 291.589 91.3613 292.535 90.5962C293.955 89.5067 295.388 88.44 296.834 87.396C298.326 86.3267 299.799 85.3865 301.255 84.5754C301.892 84.2206 302.519 83.9011 303.136 83.6172C303.753 83.3332 304.337 83.0973 304.888 82.9096L305.836 83.0075C306.124 83.2047 306.445 83.3537 306.799 83.4547C307.198 83.5303 307.597 83.6059 307.997 83.6815C308.821 83.8782 309.696 84.166 310.621 84.5449C311.546 84.9238 312.307 85.8115 312.904 87.2081C312.843 87.9573 312.747 88.4282 312.615 88.6206L312.456 89.7825L311.736 90.0944C311.463 90.2464 311.238 90.4314 311.061 90.6492C310.859 90.8215 310.669 91.0165 310.492 91.2343C310.361 91.4268 310.229 91.6192 310.098 91.8117C309.941 91.9586 309.762 92.1182 309.56 92.2905C309.15 92.5186 308.809 92.7087 308.536 92.8608C308.283 92.942 308.02 93.0587 307.747 93.2107Z" fill="#ECE6DC"/>
</g>
<defs>
<filter id="filter0_dd" x="-8" y="-8" width="330" height="329" filterUnits="userSpaceOnUse" color-interpolation-filters="sRGB">
<feFlood flood-opacity="0" result="BackgroundImageFix"/>
<feColorMatrix in="SourceAlpha" type="matrix" values="0 0 0 0 0 0 0 0 0 0 0 0 0 0 0 0 0 0 127 0"/>
<feOffset dx="-4" dy="-4"/>
<feGaussianBlur stdDeviation="2"/>
<feColorMatrix type="matrix" values="0 0 0 0 1 0 0 0 0 0.972549 0 0 0 0 0.929412 0 0 0 0.65 0"/>
<feBlend mode="normal" in2="BackgroundImageFix" result="effect1_dropShadow"/>
<feColorMatrix in="SourceAlpha" type="matrix" values="0 0 0 0 0 0 0 0 0 0 0 0 0 0 0 0 0 0 127 0"/>
<feOffset dy="4"/>
<feGaussianBlur stdDeviation="2"/>
<feColorMatrix type="matrix" values="0 0 0 0 0 0 0 0 0 0 0 0 0 0 0 0 0 0 0.5 0"/>
<feBlend mode="normal" in2="effect1_dropShadow" result="effect2_dropShadow"/>
<feBlend mode="normal" in="SourceGraphic" in2="effect2_dropShadow" result="shape"/>
</filter>
</defs>
</svg>
